<svg width="267" height="42" viewBox="0 0 267 42" fill="none" xmlns="http://www.w3.org/2000/svg">
<g filter="url(#filter0_d_1_5)">
<path d="M17.6934 7.40625H21.0859V25.5293C21.0859 27.9785 20.3477 29.8945 18.8711 31.2773C17.4062 32.6602 15.4492 33.3516 13 33.3516C10.457 33.3516 8.47656 32.7012 7.05859 31.4004C5.64062 30.0996 4.93164 28.2773 4.93164 25.9336H8.30664C8.30664 27.3984 8.70508 28.541 9.50195 29.3613C10.3105 30.1816 11.4766 30.5918 13 30.5918C14.3945 30.5918 15.5195 30.1523 16.375 29.2734C17.2422 28.3945 17.6816 27.1641 17.6934 25.582V7.40625ZM25.4629 23.3145C25.4629 21.4512 25.8262 19.7754 26.5527 18.2871C27.291 16.7988 28.3105 15.6504 29.6113 14.8418C30.9238 14.0332 32.418 13.6289 34.0938 13.6289C36.6836 13.6289 38.7754 14.5254 40.3691 16.3184C41.9746 18.1113 42.7773 20.4961 42.7773 23.4727V23.7012C42.7773 25.5527 42.4199 27.2168 41.7051 28.6934C41.002 30.1582 39.9883 31.3008 38.6641 32.1211C37.3516 32.9414 35.8398 33.3516 34.1289 33.3516C31.5508 33.3516 29.459 32.4551 27.8535 30.6621C26.2598 28.8691 25.4629 26.4961 25.4629 23.543V23.3145ZM28.7324 23.7012C28.7324 25.8105 29.2188 27.5039 30.1914 28.7812C31.1758 30.0586 32.4883 30.6973 34.1289 30.6973C35.7812 30.6973 37.0938 30.0527 38.0664 28.7637C39.0391 27.4629 39.5254 25.6465 39.5254 23.3145C39.5254 21.2285 39.0273 19.541 38.0312 18.252C37.0469 16.9512 35.7344 16.3008 34.0938 16.3008C32.4883 16.3008 31.1934 16.9395 30.209 18.2168C29.2246 19.4941 28.7324 21.3223 28.7324 23.7012ZM58.5977 33C58.4102 32.625 58.2578 31.957 58.1406 30.9961C56.6289 32.5664 54.8242 33.3516 52.7266 33.3516C50.8516 33.3516 49.3105 32.8242 48.1035 31.7695C46.9082 30.7031 46.3105 29.3555 46.3105 27.7266C46.3105 25.7461 47.0605 24.2109 48.5605 23.1211C50.0723 22.0195 52.1934 21.4688 54.9238 21.4688H58.0879V19.9746C58.0879 18.8379 57.748 17.9355 57.0684 17.2676C56.3887 16.5879 55.3867 16.248 54.0625 16.248C52.9023 16.248 51.9297 16.541 51.1445 17.127C50.3594 17.7129 49.9668 18.4219 49.9668 19.2539H46.6973C46.6973 18.3047 47.0312 17.3906 47.6992 16.5117C48.3789 15.6211 49.293 14.918 50.4414 14.4023C51.6016 13.8867 52.873 13.6289 54.2559 13.6289C56.4473 13.6289 58.1641 14.1797 59.4062 15.2812C60.6484 16.3711 61.293 17.877 61.3398 19.7988V28.5527C61.3398 30.2988 61.5625 31.6875 62.0078 32.7188V33H58.5977ZM53.2012 30.5215C54.2207 30.5215 55.1875 30.2578 56.1016 29.7305C57.0156 29.2031 57.6777 28.5176 58.0879 27.6738V23.7715H55.5391C51.5547 23.7715 49.5625 24.9375 49.5625 27.2695C49.5625 28.2891 49.9023 29.0859 50.582 29.6602C51.2617 30.2344 52.1348 30.5215 53.2012 30.5215ZM69.5137 13.9805L69.6191 16.3711C71.0723 14.543 72.9707 13.6289 75.3145 13.6289C79.334 13.6289 81.3613 15.8965 81.3965 20.4316V33H78.1445V20.4141C78.1328 19.043 77.8164 18.0293 77.1953 17.373C76.5859 16.7168 75.6309 16.3887 74.3301 16.3887C73.2754 16.3887 72.3496 16.6699 71.5527 17.2324C70.7559 17.7949 70.1348 18.5332 69.6895 19.4473V33H66.4375V13.9805H69.5137ZM89.377 13.9805L89.4824 16.3711C90.9355 14.543 92.834 13.6289 95.1777 13.6289C99.1973 13.6289 101.225 15.8965 101.26 20.4316V33H98.0078V20.4141C97.9961 19.043 97.6797 18.0293 97.0586 17.373C96.4492 16.7168 95.4941 16.3887 94.1934 16.3887C93.1387 16.3887 92.2129 16.6699 91.416 17.2324C90.6191 17.7949 89.998 18.5332 89.5527 19.4473V33H86.3008V13.9805H89.377ZM117.906 33C117.719 32.625 117.566 31.957 117.449 30.9961C115.938 32.5664 114.133 33.3516 112.035 33.3516C110.16 33.3516 108.619 32.8242 107.412 31.7695C106.217 30.7031 105.619 29.3555 105.619 27.7266C105.619 25.7461 106.369 24.2109 107.869 23.1211C109.381 22.0195 111.502 21.4688 114.232 21.4688H117.396V19.9746C117.396 18.8379 117.057 17.9355 116.377 17.2676C115.697 16.5879 114.695 16.248 113.371 16.248C112.211 16.248 111.238 16.541 110.453 17.127C109.668 17.7129 109.275 18.4219 109.275 19.2539H106.006C106.006 18.3047 106.34 17.3906 107.008 16.5117C107.688 15.6211 108.602 14.918 109.75 14.4023C110.91 13.8867 112.182 13.6289 113.564 13.6289C115.756 13.6289 117.473 14.1797 118.715 15.2812C119.957 16.3711 120.602 17.877 120.648 19.7988V28.5527C120.648 30.2988 120.871 31.6875 121.316 32.7188V33H117.906ZM112.51 30.5215C113.529 30.5215 114.496 30.2578 115.41 29.7305C116.324 29.2031 116.986 28.5176 117.396 27.6738V23.7715H114.848C110.863 23.7715 108.871 24.9375 108.871 27.2695C108.871 28.2891 109.211 29.0859 109.891 29.6602C110.57 30.2344 111.443 30.5215 112.51 30.5215Z" fill="#BF58C8"/>
<path d="M17.6934 7.40625V6.40625H16.6934V7.40625H17.6934ZM21.0859 7.40625H22.0859V6.40625H21.0859V7.40625ZM18.8711 31.2773L18.1875 30.5474L18.1846 30.5502L18.8711 31.2773ZM4.93164 25.9336V24.9336H3.93164V25.9336H4.93164ZM8.30664 25.9336H9.30664V24.9336H8.30664V25.9336ZM9.50195 29.3613L8.78465 30.0581L8.78978 30.0633L9.50195 29.3613ZM16.375 29.2734L15.6631 28.5711L15.6584 28.5759L16.375 29.2734ZM17.6934 25.582L18.6934 25.5894V25.582H17.6934ZM17.6934 8.40625H21.0859V6.40625H17.6934V8.40625ZM20.0859 7.40625V25.5293H22.0859V7.40625H20.0859ZM20.0859 25.5293C20.0859 27.7648 19.4205 29.3928 18.1875 30.5474L19.5546 32.0072C21.2748 30.3963 22.0859 28.1923 22.0859 25.5293H20.0859ZM18.1846 30.5502C16.9438 31.7215 15.2522 32.3516 13 32.3516V34.3516C15.6463 34.3516 17.8687 33.5988 19.5575 32.0045L18.1846 30.5502ZM13 32.3516C10.625 32.3516 8.91528 31.7466 7.73459 30.6635L6.38259 32.1373C8.03785 33.6557 10.2891 34.3516 13 34.3516V32.3516ZM7.73459 30.6635C6.56715 29.5925 5.93164 28.0631 5.93164 25.9336H3.93164C3.93164 28.4915 4.7141 30.6067 6.38259 32.1373L7.73459 30.6635ZM4.93164 26.9336H8.30664V24.9336H4.93164V26.9336ZM7.30664 25.9336C7.30664 27.5824 7.75954 29.0028 8.78467 30.0581L10.2192 28.6645C9.65061 28.0792 9.30664 27.2145 9.30664 25.9336H7.30664ZM8.78978 30.0633C9.84109 31.1299 11.2985 31.5918 13 31.5918V29.5918C11.6546 29.5918 10.78 29.2334 10.2141 28.6593L8.78978 30.0633ZM13 31.5918C14.624 31.5918 16.0214 31.0704 17.0916 29.9709L15.6584 28.5759C15.0176 29.2343 14.165 29.5918 13 29.5918V31.5918ZM17.0868 29.9758C18.1843 28.8635 18.6803 27.3554 18.6933 25.5894L16.6934 25.5746C16.683 26.9727 16.3001 27.9256 15.6632 28.5711L17.0868 29.9758ZM18.6934 25.582V7.40625H16.6934V25.582H18.6934ZM26.5527 18.2871L25.6569 17.8427L25.6541 17.8484L26.5527 18.2871ZM29.6113 14.8418L29.0868 13.9904L29.0834 13.9925L29.6113 14.8418ZM40.3691 16.3184L39.6217 16.9827L39.6242 16.9854L40.3691 16.3184ZM41.7051 28.6934L40.805 28.2576L40.8036 28.2606L41.7051 28.6934ZM38.6641 32.1211L38.1374 31.271L38.1341 31.2731L38.6641 32.1211ZM27.8535 30.6621L27.1061 31.3265L27.1085 31.3292L27.8535 30.6621ZM30.1914 28.7812L29.3958 29.3871L29.3993 29.3917L30.1914 28.7812ZM38.0664 28.7637L38.8647 29.366L38.8673 29.3625L38.0664 28.7637ZM38.0312 18.252L37.2338 18.8554L37.24 18.8634L38.0312 18.252ZM26.4629 23.3145C26.4629 21.5841 26.7994 20.0612 27.4514 18.7258L25.6541 17.8484C24.8529 19.4895 24.4629 21.3183 24.4629 23.3145H26.4629ZM27.4486 18.7315C28.1115 17.3951 29.0097 16.3932 30.1393 15.6911L29.0834 13.9925C27.6114 14.9075 26.4705 16.2025 25.6569 17.8427L27.4486 18.7315ZM30.1358 15.6932C31.277 14.9902 32.5865 14.6289 34.0938 14.6289V12.6289C32.2495 12.6289 30.5707 13.0762 29.0868 13.9904L30.1358 15.6932ZM34.0938 14.6289C36.4236 14.6289 38.2341 15.4217 39.6217 16.9827L41.1165 15.654C39.3167 13.6291 36.9436 12.6289 34.0938 12.6289V14.6289ZM39.6242 16.9854C41.0289 18.5543 41.7773 20.6815 41.7773 23.4727H43.7773C43.7773 20.3107 42.9203 17.6684 41.1141 15.6513L39.6242 16.9854ZM41.7773 23.4727V23.7012H43.7773V23.4727H41.7773ZM41.7773 23.7012C41.7773 25.4213 41.4461 26.9334 40.805 28.2576L42.6051 29.1291C43.3938 27.5001 43.7773 25.6841 43.7773 23.7012H41.7773ZM40.8036 28.2606C40.1793 29.5612 39.2922 30.5556 38.1374 31.271L39.1907 32.9712C40.6843 32.0459 41.8246 30.7552 42.6066 29.1261L40.8036 28.2606ZM38.1341 31.2731C36.997 31.9838 35.6728 32.3516 34.1289 32.3516V34.3516C36.0068 34.3516 37.7062 33.899 39.1941 32.9691L38.1341 31.2731ZM34.1289 32.3516C31.8123 32.3516 29.9996 31.5597 28.5985 29.995L27.1085 31.3292C28.9184 33.3504 31.2892 34.3516 34.1289 34.3516V32.3516ZM28.6009 29.9977C27.2052 28.4276 26.4629 26.3102 26.4629 23.543H24.4629C24.4629 26.682 25.3143 29.3107 27.1061 31.3265L28.6009 29.9977ZM26.4629 23.543V23.3145H24.4629V23.543H26.4629ZM27.7324 23.7012C27.7324 25.9607 28.2542 27.8879 29.3958 29.3871L30.987 28.1754C30.1833 27.1199 29.7324 25.6604 29.7324 23.7012H27.7324ZM29.3993 29.3917C30.5768 30.9196 32.1844 31.6973 34.1289 31.6973V29.6973C32.7921 29.6973 31.7747 29.1976 30.9835 28.1708L29.3993 29.3917ZM34.1289 31.6973C36.0864 31.6973 37.6979 30.9123 38.8647 29.366L37.2682 28.1614C36.4896 29.1932 35.4761 29.6973 34.1289 29.6973V31.6973ZM38.8673 29.3625C40.0147 27.828 40.5254 25.7715 40.5254 23.3145H38.5254C38.5254 25.5215 38.0634 27.0978 37.2655 28.1648L38.8673 29.3625ZM40.5254 23.3145C40.5254 21.0699 39.9878 19.1486 38.8225 17.6405L37.24 18.8634C38.0668 19.9335 38.5254 21.3871 38.5254 23.3145H40.5254ZM38.8287 17.6485C37.654 16.0963 36.0455 15.3008 34.0938 15.3008V17.3008C35.4233 17.3008 36.4398 17.8061 37.2338 18.8554L38.8287 17.6485ZM34.0938 15.3008C32.1765 15.3008 30.5896 16.0847 29.4169 17.6064L31.0011 18.8272C31.7971 17.7942 32.8001 17.3008 34.0938 17.3008V15.3008ZM29.4169 17.6064C28.247 19.1245 27.7324 21.2021 27.7324 23.7012H29.7324C29.7324 21.4424 30.2022 19.8638 31.0011 18.8272L29.4169 17.6064ZM58.5977 33L57.7032 33.4472L57.9796 34H58.5977V33ZM58.1406 30.9961L59.1333 30.875L58.8787 28.7875L57.4202 30.3026L58.1406 30.9961ZM48.1035 31.7695L47.4378 32.5158L47.4455 32.5226L48.1035 31.7695ZM48.5605 23.1211L49.1483 23.9301L49.1495 23.9293L48.5605 23.1211ZM58.0879 21.4688V22.4688H59.0879V21.4688H58.0879ZM57.0684 17.2676L56.3612 17.9747L56.3674 17.9808L57.0684 17.2676ZM49.9668 19.2539V20.2539H50.9668V19.2539H49.9668ZM46.6973 19.2539H45.6973V20.2539H46.6973V19.2539ZM47.6992 16.5117L46.9043 15.905L46.9031 15.9066L47.6992 16.5117ZM50.4414 14.4023L50.0353 13.4885L50.0318 13.4901L50.4414 14.4023ZM59.4062 15.2812L58.7428 16.0294L58.7467 16.0329L59.4062 15.2812ZM61.3398 19.7988H62.3398V19.7866L62.3395 19.7744L61.3398 19.7988ZM62.0078 32.7188H63.0078V32.5121L62.9259 32.3223L62.0078 32.7188ZM62.0078 33V34H63.0078V33H62.0078ZM58.0879 27.6738L58.9873 28.111L59.0879 27.904V27.6738H58.0879ZM58.0879 23.7715H59.0879V22.7715H58.0879V23.7715ZM59.4921 32.5528C59.3889 32.3463 59.25 31.8322 59.1333 30.875L57.148 31.1171C57.2656 32.0819 57.4315 32.9037 57.7032 33.4472L59.4921 32.5528ZM57.4202 30.3026C56.0887 31.6857 54.5407 32.3516 52.7266 32.3516V34.3516C55.1077 34.3516 57.1691 33.4472 58.861 31.6896L57.4202 30.3026ZM52.7266 32.3516C51.0501 32.3516 49.7561 31.8855 48.7615 31.0165L47.4455 32.5226C48.865 33.7629 50.653 34.3516 52.7266 34.3516V32.3516ZM48.7692 31.0233C47.7907 30.1503 47.3105 29.076 47.3105 27.7266H45.3105C45.3105 29.635 46.0257 31.256 47.4378 32.5157L48.7692 31.0233ZM47.3105 27.7266C47.3105 26.0407 47.9273 24.8173 49.1483 23.9301L47.9728 22.3121C46.1938 23.6046 45.3105 25.4515 45.3105 27.7266H47.3105ZM49.1495 23.9293C50.4277 22.9979 52.3119 22.4688 54.9238 22.4688V20.4688C52.0749 20.4688 49.7168 21.0412 47.9716 22.3129L49.1495 23.9293ZM54.9238 22.4688H58.0879V20.4688H54.9238V22.4688ZM59.0879 21.4688V19.9746H57.0879V21.4688H59.0879ZM59.0879 19.9746C59.0879 18.6253 58.6766 17.446 57.7693 16.5543L56.3674 17.9808C56.8195 18.4251 57.0879 19.0505 57.0879 19.9746H59.0879ZM57.7755 16.5605C56.8466 15.6316 55.5497 15.248 54.0625 15.248V17.248C55.2238 17.248 55.9308 17.5442 56.3613 17.9747L57.7755 16.5605ZM54.0625 15.248C52.7278 15.248 51.5345 15.5881 50.5464 16.3255L51.7426 17.9284C52.3248 17.4939 53.0769 17.248 54.0625 17.248V15.248ZM50.5464 16.3255C49.5592 17.0623 48.9668 18.0478 48.9668 19.2539H50.9668C50.9668 18.7959 51.1596 18.3635 51.7426 17.9284L50.5464 16.3255ZM49.9668 18.2539H46.6973V20.2539H49.9668V18.2539ZM47.6973 19.2539C47.6973 18.5576 47.9372 17.8512 48.4954 17.1168L46.9031 15.9066C46.1253 16.93 45.6973 18.0518 45.6973 19.2539H47.6973ZM48.4942 17.1184C49.0609 16.3758 49.8354 15.7706 50.851 15.3146L50.0318 13.4901C48.7506 14.0653 47.6969 14.8664 46.9043 15.905L48.4942 17.1184ZM50.8475 15.3162C51.8688 14.8623 53.0004 14.6289 54.2559 14.6289V12.6289C52.7457 12.6289 51.3343 12.9112 50.0353 13.4885L50.8475 15.3162ZM54.2559 14.6289C56.2824 14.6289 57.7354 15.1362 58.7428 16.0294L60.0697 14.5331C58.5927 13.2232 56.6121 12.6289 54.2559 12.6289V14.6289ZM58.7467 16.0329C59.7441 16.908 60.2989 18.1307 60.3401 19.8232L62.3395 19.7744C62.2871 17.6232 61.5528 15.8342 60.0658 14.5296L58.7467 16.0329ZM60.3398 19.7988V28.5527H62.3398V19.7988H60.3398ZM60.3398 28.5527C60.3398 30.3675 60.5688 31.9088 61.0898 33.1152L62.9259 32.3223C62.5562 31.4662 62.3398 30.2301 62.3398 28.5527H60.3398ZM61.0078 32.7188V33H63.0078V32.7188H61.0078ZM62.0078 32H58.5977V34H62.0078V32ZM53.2012 31.5215C54.4024 31.5215 55.5408 31.2085 56.6013 30.5967L55.6018 28.8643C54.8342 29.3072 54.039 29.5215 53.2012 29.5215V31.5215ZM56.6013 30.5967C57.666 29.9824 58.4791 29.1564 58.9873 28.111L57.1885 27.2366C56.8764 27.8787 56.3652 28.4239 55.6018 28.8643L56.6013 30.5967ZM59.0879 27.6738V23.7715H57.0879V27.6738H59.0879ZM58.0879 22.7715H55.5391V24.7715H58.0879V22.7715ZM55.5391 22.7715C53.4821 22.7715 51.7753 23.0667 50.5515 23.783C49.245 24.5476 48.5625 25.7529 48.5625 27.2695H50.5625C50.5625 26.4541 50.8761 25.9104 51.5618 25.509C52.3302 25.0593 53.6117 24.7715 55.5391 24.7715V22.7715ZM48.5625 27.2695C48.5625 28.5356 48.9979 29.6309 49.9367 30.424L51.2274 28.8963C50.8068 28.541 50.5625 28.0426 50.5625 27.2695H48.5625ZM49.9367 30.424C50.831 31.1796 51.9475 31.5215 53.2012 31.5215V29.5215C52.322 29.5215 51.6924 29.2891 51.2274 28.8963L49.9367 30.424ZM69.5137 13.9805L70.5127 13.9364L70.4705 12.9805H69.5137V13.9805ZM69.6191 16.3711L68.6201 16.4152L68.738 19.0867L70.402 16.9933L69.6191 16.3711ZM81.3965 20.4316L82.3965 20.4316L82.3965 20.4239L81.3965 20.4316ZM81.3965 33V34H82.3965V33H81.3965ZM78.1445 33H77.1445V34H78.1445V33ZM78.1445 20.4141L79.1446 20.4141L79.1445 20.4055L78.1445 20.4141ZM77.1953 17.373L76.4625 18.0535L76.469 18.0604L77.1953 17.373ZM69.6895 19.4473L68.7905 19.0093L68.6895 19.2166V19.4473H69.6895ZM69.6895 33V34H70.6895V33H69.6895ZM66.4375 33H65.4375V34H66.4375V33ZM66.4375 13.9805V12.9805H65.4375V13.9805H66.4375ZM68.5146 14.0245L68.6201 16.4152L70.6182 16.327L70.5127 13.9364L68.5146 14.0245ZM70.402 16.9933C71.6646 15.4049 73.2743 14.6289 75.3145 14.6289V12.6289C72.6671 12.6289 70.48 13.681 68.8363 15.7488L70.402 16.9933ZM75.3145 14.6289C77.1361 14.6289 78.3362 15.1372 79.1041 15.9961C79.8921 16.8775 80.3799 18.2989 80.3965 20.4394L82.3965 20.4239C82.3779 18.0292 81.8344 16.0493 80.5951 14.6631C79.3357 13.2544 77.5123 12.6289 75.3145 12.6289V14.6289ZM80.3965 20.4316V33H82.3965V20.4316H80.3965ZM81.3965 32H78.1445V34H81.3965V32ZM79.1445 33V20.4141H77.1445V33H79.1445ZM79.1445 20.4055C79.1317 18.909 78.7876 17.6007 77.9216 16.6857L76.469 18.0604C76.8452 18.4579 77.1339 19.177 77.1446 20.4226L79.1445 20.4055ZM77.9281 16.6926C77.0575 15.755 75.7815 15.3887 74.3301 15.3887V17.3887C75.4802 17.3887 76.1144 17.6786 76.4625 18.0535L77.9281 16.6926ZM74.3301 15.3887C73.0866 15.3887 71.9555 15.7241 70.9761 16.4155L72.1294 18.0494C72.7437 17.6158 73.4642 17.3887 74.3301 17.3887V15.3887ZM70.9761 16.4155C70.0356 17.0793 69.3063 17.9504 68.7905 19.0093L70.5884 19.8852C70.9632 19.116 71.4761 18.5105 72.1294 18.0494L70.9761 16.4155ZM68.6895 19.4473V33H70.6895V19.4473H68.6895ZM69.6895 32H66.4375V34H69.6895V32ZM67.4375 33V13.9805H65.4375V33H67.4375ZM66.4375 14.9805H69.5137V12.9805H66.4375V14.9805ZM89.377 13.9805L90.376 13.9364L90.3338 12.9805H89.377V13.9805ZM89.4824 16.3711L88.4834 16.4152L88.6013 19.0867L90.2652 16.9933L89.4824 16.3711ZM101.26 20.4316L102.26 20.4316L102.26 20.4239L101.26 20.4316ZM101.26 33V34H102.26V33H101.26ZM98.0078 33H97.0078V34H98.0078V33ZM98.0078 20.4141L99.0078 20.4141L99.0078 20.4055L98.0078 20.4141ZM97.0586 17.373L96.3258 18.0535L96.3323 18.0604L97.0586 17.373ZM89.5527 19.4473L88.6537 19.0093L88.5527 19.2166V19.4473H89.5527ZM89.5527 33V34H90.5527V33H89.5527ZM86.3008 33H85.3008V34H86.3008V33ZM86.3008 13.9805V12.9805H85.3008V13.9805H86.3008ZM88.3779 14.0245L88.4834 16.4152L90.4815 16.327L90.376 13.9364L88.3779 14.0245ZM90.2652 16.9933C91.5279 15.4049 93.1376 14.6289 95.1777 14.6289V12.6289C92.5304 12.6289 90.3432 13.681 88.6996 15.7488L90.2652 16.9933ZM95.1777 14.6289C96.9994 14.6289 98.1995 15.1372 98.9674 15.9961C99.7554 16.8775 100.243 18.2989 100.26 20.4394L102.26 20.4239C102.241 18.0292 101.698 16.0493 100.458 14.6631C99.199 13.2544 97.3756 12.6289 95.1777 12.6289V14.6289ZM100.26 20.4316V33H102.26V20.4316H100.26ZM101.26 32H98.0078V34H101.26V32ZM99.0078 33V20.4141H97.0078V33H99.0078ZM99.0078 20.4055C98.995 18.909 98.6509 17.6007 97.7849 16.6857L96.3323 18.0604C96.7085 18.4579 96.9972 19.177 97.0078 20.4226L99.0078 20.4055ZM97.7914 16.6926C96.9207 15.755 95.6448 15.3887 94.1934 15.3887V17.3887C95.3435 17.3887 95.9777 17.6786 96.3258 18.0535L97.7914 16.6926ZM94.1934 15.3887C92.9498 15.3887 91.8188 15.7241 90.8393 16.4155L91.9927 18.0494C92.607 17.6158 93.3275 17.3887 94.1934 17.3887V15.3887ZM90.8393 16.4155C89.8989 17.0793 89.1696 17.9504 88.6537 19.0093L90.4517 19.8852C90.8265 19.116 91.3394 18.5105 91.9927 18.0494L90.8393 16.4155ZM88.5527 19.4473V33H90.5527V19.4473H88.5527ZM89.5527 32H86.3008V34H89.5527V32ZM87.3008 33V13.9805H85.3008V33H87.3008ZM86.3008 14.9805H89.377V12.9805H86.3008V14.9805ZM117.906 33L117.012 33.4472L117.288 34H117.906V33ZM117.449 30.9961L118.442 30.875L118.187 28.7875L116.729 30.3026L117.449 30.9961ZM107.412 31.7695L106.746 32.5158L106.754 32.5226L107.412 31.7695ZM107.869 23.1211L108.457 23.9301L108.458 23.9293L107.869 23.1211ZM117.396 21.4688V22.4688H118.396V21.4688H117.396ZM116.377 17.2676L115.67 17.9747L115.676 17.9808L116.377 17.2676ZM109.275 19.2539V20.2539H110.275V19.2539H109.275ZM106.006 19.2539H105.006V20.2539H106.006V19.2539ZM107.008 16.5117L106.213 15.905L106.212 15.9066L107.008 16.5117ZM109.75 14.4023L109.344 13.4885L109.34 13.4901L109.75 14.4023ZM118.715 15.2812L118.051 16.0294L118.055 16.0329L118.715 15.2812ZM120.648 19.7988H121.648V19.7866L121.648 19.7744L120.648 19.7988ZM121.316 32.7188H122.316V32.5121L122.234 32.3223L121.316 32.7188ZM121.316 33V34H122.316V33H121.316ZM117.396 27.6738L118.296 28.111L118.396 27.904V27.6738H117.396ZM117.396 23.7715H118.396V22.7715H117.396V23.7715ZM118.801 32.5528C118.697 32.3463 118.559 31.8322 118.442 30.875L116.457 31.1171C116.574 32.0819 116.74 32.9037 117.012 33.4472L118.801 32.5528ZM116.729 30.3026C115.397 31.6857 113.849 32.3516 112.035 32.3516V34.3516C114.416 34.3516 116.478 33.4472 118.17 31.6896L116.729 30.3026ZM112.035 32.3516C110.359 32.3516 109.065 31.8855 108.07 31.0165L106.754 32.5226C108.174 33.7629 109.962 34.3516 112.035 34.3516V32.3516ZM108.078 31.0233C107.099 30.1503 106.619 29.076 106.619 27.7266H104.619C104.619 29.635 105.334 31.256 106.746 32.5157L108.078 31.0233ZM106.619 27.7266C106.619 26.0407 107.236 24.8173 108.457 23.9301L107.281 22.3121C105.502 23.6046 104.619 25.4515 104.619 27.7266H106.619ZM108.458 23.9293C109.736 22.9979 111.62 22.4688 114.232 22.4688V20.4688C111.383 20.4688 109.025 21.0412 107.28 22.3129L108.458 23.9293ZM114.232 22.4688H117.396V20.4688H114.232V22.4688ZM118.396 21.4688V19.9746H116.396V21.4688H118.396ZM118.396 19.9746C118.396 18.6253 117.985 17.446 117.078 16.5543L115.676 17.9808C116.128 18.4251 116.396 19.0505 116.396 19.9746H118.396ZM117.084 16.5605C116.155 15.6316 114.858 15.248 113.371 15.248V17.248C114.532 17.248 115.239 17.5442 115.67 17.9747L117.084 16.5605ZM113.371 15.248C112.036 15.248 110.843 15.5881 109.855 16.3255L111.051 17.9284C111.633 17.4939 112.386 17.248 113.371 17.248V15.248ZM109.855 16.3255C108.868 17.0623 108.275 18.0478 108.275 19.2539H110.275C110.275 18.7959 110.468 18.3635 111.051 17.9284L109.855 16.3255ZM109.275 18.2539H106.006V20.2539H109.275V18.2539ZM107.006 19.2539C107.006 18.5576 107.246 17.8512 107.804 17.1168L106.212 15.9066C105.434 16.93 105.006 18.0518 105.006 19.2539H107.006ZM107.803 17.1184C108.369 16.3758 109.144 15.7706 110.16 15.3146L109.34 13.4901C108.059 14.0653 107.006 14.8664 106.213 15.905L107.803 17.1184ZM110.156 15.3162C111.177 14.8623 112.309 14.6289 113.564 14.6289V12.6289C112.054 12.6289 110.643 12.9112 109.344 13.4885L110.156 15.3162ZM113.564 14.6289C115.591 14.6289 117.044 15.1362 118.051 16.0294L119.378 14.5331C117.901 13.2232 115.921 12.6289 113.564 12.6289V14.6289ZM118.055 16.0329C119.053 16.908 119.607 18.1307 119.649 19.8232L121.648 19.7744C121.596 17.6232 120.861 15.8342 119.374 14.5296L118.055 16.0329ZM119.648 19.7988V28.5527H121.648V19.7988H119.648ZM119.648 28.5527C119.648 30.3675 119.877 31.9088 120.398 33.1152L122.234 32.3223C121.865 31.4662 121.648 30.2301 121.648 28.5527H119.648ZM120.316 32.7188V33H122.316V32.7188H120.316ZM121.316 32H117.906V34H121.316V32ZM112.51 31.5215C113.711 31.5215 114.849 31.2085 115.91 30.5967L114.91 28.8643C114.143 29.3072 113.348 29.5215 112.51 29.5215V31.5215ZM115.91 30.5967C116.975 29.9824 117.788 29.1564 118.296 28.111L116.497 27.2366C116.185 27.8787 115.674 28.4239 114.91 28.8643L115.91 30.5967ZM118.396 27.6738V23.7715H116.396V27.6738H118.396ZM117.396 22.7715H114.848V24.7715H117.396V22.7715ZM114.848 22.7715C112.791 22.7715 111.084 23.0667 109.86 23.783C108.554 24.5476 107.871 25.7529 107.871 27.2695H109.871C109.871 26.4541 110.185 25.9104 110.87 25.509C111.639 25.0593 112.92 24.7715 114.848 24.7715V22.7715ZM107.871 27.2695C107.871 28.5356 108.306 29.6309 109.245 30.424L110.536 28.8963C110.115 28.541 109.871 28.0426 109.871 27.2695H107.871ZM109.245 30.424C110.14 31.1796 111.256 31.5215 112.51 31.5215V29.5215C111.631 29.5215 111.001 29.2891 110.536 28.8963L109.245 30.424Z" fill="#BF58C8"/>
<path d="M17.6934 7.40625V6.40625H16.6934V7.40625H17.6934ZM21.0859 7.40625H22.0859V6.40625H21.0859V7.40625ZM18.8711 31.2773L18.1875 30.5474L18.1846 30.5502L18.8711 31.2773ZM4.93164 25.9336V24.9336H3.93164V25.9336H4.93164ZM8.30664 25.9336H9.30664V24.9336H8.30664V25.9336ZM9.50195 29.3613L8.78465 30.0581L8.78978 30.0633L9.50195 29.3613ZM16.375 29.2734L15.6631 28.5711L15.6584 28.5759L16.375 29.2734ZM17.6934 25.582L18.6934 25.5894V25.582H17.6934ZM17.6934 8.40625H21.0859V6.40625H17.6934V8.40625ZM20.0859 7.40625V25.5293H22.0859V7.40625H20.0859ZM20.0859 25.5293C20.0859 27.7648 19.4205 29.3928 18.1875 30.5474L19.5546 32.0072C21.2748 30.3963 22.0859 28.1923 22.0859 25.5293H20.0859ZM18.1846 30.5502C16.9438 31.7215 15.2522 32.3516 13 32.3516V34.3516C15.6463 34.3516 17.8687 33.5988 19.5575 32.0045L18.1846 30.5502ZM13 32.3516C10.625 32.3516 8.91528 31.7466 7.73459 30.6635L6.38259 32.1373C8.03785 33.6557 10.2891 34.3516 13 34.3516V32.3516ZM7.73459 30.6635C6.56715 29.5925 5.93164 28.0631 5.93164 25.9336H3.93164C3.93164 28.4915 4.7141 30.6067 6.38259 32.1373L7.73459 30.6635ZM4.93164 26.9336H8.30664V24.9336H4.93164V26.9336ZM7.30664 25.9336C7.30664 27.5824 7.75954 29.0028 8.78467 30.0581L10.2192 28.6645C9.65061 28.0792 9.30664 27.2145 9.30664 25.9336H7.30664ZM8.78978 30.0633C9.84109 31.1299 11.2985 31.5918 13 31.5918V29.5918C11.6546 29.5918 10.78 29.2334 10.2141 28.6593L8.78978 30.0633ZM13 31.5918C14.624 31.5918 16.0214 31.0704 17.0916 29.9709L15.6584 28.5759C15.0176 29.2343 14.165 29.5918 13 29.5918V31.5918ZM17.0868 29.9758C18.1843 28.8635 18.6803 27.3554 18.6933 25.5894L16.6934 25.5746C16.683 26.9727 16.3001 27.9256 15.6632 28.5711L17.0868 29.9758ZM18.6934 25.582V7.40625H16.6934V25.582H18.6934ZM26.5527 18.2871L25.6569 17.8427L25.6541 17.8484L26.5527 18.2871ZM29.6113 14.8418L29.0868 13.9904L29.0834 13.9925L29.6113 14.8418ZM40.3691 16.3184L39.6217 16.9827L39.6242 16.9854L40.3691 16.3184ZM41.7051 28.6934L40.805 28.2576L40.8036 28.2606L41.7051 28.6934ZM38.6641 32.1211L38.1374 31.271L38.1341 31.2731L38.6641 32.1211ZM27.8535 30.6621L27.1061 31.3265L27.1085 31.3292L27.8535 30.6621ZM30.1914 28.7812L29.3958 29.3871L29.3993 29.3917L30.1914 28.7812ZM38.0664 28.7637L38.8647 29.366L38.8673 29.3625L38.0664 28.7637ZM38.0312 18.252L37.2338 18.8554L37.24 18.8634L38.0312 18.252ZM26.4629 23.3145C26.4629 21.5841 26.7994 20.0612 27.4514 18.7258L25.6541 17.8484C24.8529 19.4895 24.4629 21.3183 24.4629 23.3145H26.4629ZM27.4486 18.7315C28.1115 17.3951 29.0097 16.3932 30.1393 15.6911L29.0834 13.9925C27.6114 14.9075 26.4705 16.2025 25.6569 17.8427L27.4486 18.7315ZM30.1358 15.6932C31.277 14.9902 32.5865 14.6289 34.0938 14.6289V12.6289C32.2495 12.6289 30.5707 13.0762 29.0868 13.9904L30.1358 15.6932ZM34.0938 14.6289C36.4236 14.6289 38.2341 15.4217 39.6217 16.9827L41.1165 15.654C39.3167 13.6291 36.9436 12.6289 34.0938 12.6289V14.6289ZM39.6242 16.9854C41.0289 18.5543 41.7773 20.6815 41.7773 23.4727H43.7773C43.7773 20.3107 42.9203 17.6684 41.1141 15.6513L39.6242 16.9854ZM41.7773 23.4727V23.7012H43.7773V23.4727H41.7773ZM41.7773 23.7012C41.7773 25.4213 41.4461 26.9334 40.805 28.2576L42.6051 29.1291C43.3938 27.5001 43.7773 25.6841 43.7773 23.7012H41.7773ZM40.8036 28.2606C40.1793 29.5612 39.2922 30.5556 38.1374 31.271L39.1907 32.9712C40.6843 32.0459 41.8246 30.7552 42.6066 29.1261L40.8036 28.2606ZM38.1341 31.2731C36.997 31.9838 35.6728 32.3516 34.1289 32.3516V34.3516C36.0068 34.3516 37.7062 33.899 39.1941 32.9691L38.1341 31.2731ZM34.1289 32.3516C31.8123 32.3516 29.9996 31.5597 28.5985 29.995L27.1085 31.3292C28.9184 33.3504 31.2892 34.3516 34.1289 34.3516V32.3516ZM28.6009 29.9977C27.2052 28.4276 26.4629 26.3102 26.4629 23.543H24.4629C24.4629 26.682 25.3143 29.3107 27.1061 31.3265L28.6009 29.9977ZM26.4629 23.543V23.3145H24.4629V23.543H26.4629ZM27.7324 23.7012C27.7324 25.9607 28.2542 27.8879 29.3958 29.3871L30.987 28.1754C30.1833 27.1199 29.7324 25.6604 29.7324 23.7012H27.7324ZM29.3993 29.3917C30.5768 30.9196 32.1844 31.6973 34.1289 31.6973V29.6973C32.7921 29.6973 31.7747 29.1976 30.9835 28.1708L29.3993 29.3917ZM34.1289 31.6973C36.0864 31.6973 37.6979 30.9123 38.8647 29.366L37.2682 28.1614C36.4896 29.1932 35.4761 29.6973 34.1289 29.6973V31.6973ZM38.8673 29.3625C40.0147 27.828 40.5254 25.7715 40.5254 23.3145H38.5254C38.5254 25.5215 38.0634 27.0978 37.2655 28.1648L38.8673 29.3625ZM40.5254 23.3145C40.5254 21.0699 39.9878 19.1486 38.8225 17.6405L37.24 18.8634C38.0668 19.9335 38.5254 21.3871 38.5254 23.3145H40.5254ZM38.8287 17.6485C37.654 16.0963 36.0455 15.3008 34.0938 15.3008V17.3008C35.4233 17.3008 36.4398 17.8061 37.2338 18.8554L38.8287 17.6485ZM34.0938 15.3008C32.1765 15.3008 30.5896 16.0847 29.4169 17.6064L31.0011 18.8272C31.7971 17.7942 32.8001 17.3008 34.0938 17.3008V15.3008ZM29.4169 17.6064C28.247 19.1245 27.7324 21.2021 27.7324 23.7012H29.7324C29.7324 21.4424 30.2022 19.8638 31.0011 18.8272L29.4169 17.6064ZM58.5977 33L57.7032 33.4472L57.9796 34H58.5977V33ZM58.1406 30.9961L59.1333 30.875L58.8787 28.7875L57.4202 30.3026L58.1406 30.9961ZM48.1035 31.7695L47.4378 32.5158L47.4455 32.5226L48.1035 31.7695ZM48.5605 23.1211L49.1483 23.9301L49.1495 23.9293L48.5605 23.1211ZM58.0879 21.4688V22.4688H59.0879V21.4688H58.0879ZM57.0684 17.2676L56.3612 17.9747L56.3674 17.9808L57.0684 17.2676ZM49.9668 19.2539V20.2539H50.9668V19.2539H49.9668ZM46.6973 19.2539H45.6973V20.2539H46.6973V19.2539ZM47.6992 16.5117L46.9043 15.905L46.9031 15.9066L47.6992 16.5117ZM50.4414 14.4023L50.0353 13.4885L50.0318 13.4901L50.4414 14.4023ZM59.4062 15.2812L58.7428 16.0294L58.7467 16.0329L59.4062 15.2812ZM61.3398 19.7988H62.3398V19.7866L62.3395 19.7744L61.3398 19.7988ZM62.0078 32.7188H63.0078V32.5121L62.9259 32.3223L62.0078 32.7188ZM62.0078 33V34H63.0078V33H62.0078ZM58.0879 27.6738L58.9873 28.111L59.0879 27.904V27.6738H58.0879ZM58.0879 23.7715H59.0879V22.7715H58.0879V23.7715ZM59.4921 32.5528C59.3889 32.3463 59.25 31.8322 59.1333 30.875L57.148 31.1171C57.2656 32.0819 57.4315 32.9037 57.7032 33.4472L59.4921 32.5528ZM57.4202 30.3026C56.0887 31.6857 54.5407 32.3516 52.7266 32.3516V34.3516C55.1077 34.3516 57.1691 33.4472 58.861 31.6896L57.4202 30.3026ZM52.7266 32.3516C51.0501 32.3516 49.7561 31.8855 48.7615 31.0165L47.4455 32.5226C48.865 33.7629 50.653 34.3516 52.7266 34.3516V32.3516ZM48.7692 31.0233C47.7907 30.1503 47.3105 29.076 47.3105 27.7266H45.3105C45.3105 29.635 46.0257 31.256 47.4378 32.5157L48.7692 31.0233ZM47.3105 27.7266C47.3105 26.0407 47.9273 24.8173 49.1483 23.9301L47.9728 22.3121C46.1938 23.6046 45.3105 25.4515 45.3105 27.7266H47.3105ZM49.1495 23.9293C50.4277 22.9979 52.3119 22.4688 54.9238 22.4688V20.4688C52.0749 20.4688 49.7168 21.0412 47.9716 22.3129L49.1495 23.9293ZM54.9238 22.4688H58.0879V20.4688H54.9238V22.4688ZM59.0879 21.4688V19.9746H57.0879V21.4688H59.0879ZM59.0879 19.9746C59.0879 18.6253 58.6766 17.446 57.7693 16.5543L56.3674 17.9808C56.8195 18.4251 57.0879 19.0505 57.0879 19.9746H59.0879ZM57.7755 16.5605C56.8466 15.6316 55.5497 15.248 54.0625 15.248V17.248C55.2238 17.248 55.9308 17.5442 56.3613 17.9747L57.7755 16.5605ZM54.0625 15.248C52.7278 15.248 51.5345 15.5881 50.5464 16.3255L51.7426 17.9284C52.3248 17.4939 53.0769 17.248 54.0625 17.248V15.248ZM50.5464 16.3255C49.5592 17.0623 48.9668 18.0478 48.9668 19.2539H50.9668C50.9668 18.7959 51.1596 18.3635 51.7426 17.9284L50.5464 16.3255ZM49.9668 18.2539H46.6973V20.2539H49.9668V18.2539ZM47.6973 19.2539C47.6973 18.5576 47.9372 17.8512 48.4954 17.1168L46.9031 15.9066C46.1253 16.93 45.6973 18.0518 45.6973 19.2539H47.6973ZM48.4942 17.1184C49.0609 16.3758 49.8354 15.7706 50.851 15.3146L50.0318 13.4901C48.7506 14.0653 47.6969 14.8664 46.9043 15.905L48.4942 17.1184ZM50.8475 15.3162C51.8688 14.8623 53.0004 14.6289 54.2559 14.6289V12.6289C52.7457 12.6289 51.3343 12.9112 50.0353 13.4885L50.8475 15.3162ZM54.2559 14.6289C56.2824 14.6289 57.7354 15.1362 58.7428 16.0294L60.0697 14.5331C58.5927 13.2232 56.6121 12.6289 54.2559 12.6289V14.6289ZM58.7467 16.0329C59.7441 16.908 60.2989 18.1307 60.3401 19.8232L62.3395 19.7744C62.2871 17.6232 61.5528 15.8342 60.0658 14.5296L58.7467 16.0329ZM60.3398 19.7988V28.5527H62.3398V19.7988H60.3398ZM60.3398 28.5527C60.3398 30.3675 60.5688 31.9088 61.0898 33.1152L62.9259 32.3223C62.5562 31.4662 62.3398 30.2301 62.3398 28.5527H60.3398ZM61.0078 32.7188V33H63.0078V32.7188H61.0078ZM62.0078 32H58.5977V34H62.0078V32ZM53.2012 31.5215C54.4024 31.5215 55.5408 31.2085 56.6013 30.5967L55.6018 28.8643C54.8342 29.3072 54.039 29.5215 53.2012 29.5215V31.5215ZM56.6013 30.5967C57.666 29.9824 58.4791 29.1564 58.9873 28.111L57.1885 27.2366C56.8764 27.8787 56.3652 28.4239 55.6018 28.8643L56.6013 30.5967ZM59.0879 27.6738V23.7715H57.0879V27.6738H59.0879ZM58.0879 22.7715H55.5391V24.7715H58.0879V22.7715ZM55.5391 22.7715C53.4821 22.7715 51.7753 23.0667 50.5515 23.783C49.245 24.5476 48.5625 25.7529 48.5625 27.2695H50.5625C50.5625 26.4541 50.8761 25.9104 51.5618 25.509C52.3302 25.0593 53.6117 24.7715 55.5391 24.7715V22.7715ZM48.5625 27.2695C48.5625 28.5356 48.9979 29.6309 49.9367 30.424L51.2274 28.8963C50.8068 28.541 50.5625 28.0426 50.5625 27.2695H48.5625ZM49.9367 30.424C50.831 31.1796 51.9475 31.5215 53.2012 31.5215V29.5215C52.322 29.5215 51.6924 29.2891 51.2274 28.8963L49.9367 30.424ZM69.5137 13.9805L70.5127 13.9364L70.4705 12.9805H69.5137V13.9805ZM69.6191 16.3711L68.6201 16.4152L68.738 19.0867L70.402 16.9933L69.6191 16.3711ZM81.3965 20.4316L82.3965 20.4316L82.3965 20.4239L81.3965 20.4316ZM81.3965 33V34H82.3965V33H81.3965ZM78.1445 33H77.1445V34H78.1445V33ZM78.1445 20.4141L79.1446 20.4141L79.1445 20.4055L78.1445 20.4141ZM77.1953 17.373L76.4625 18.0535L76.469 18.0604L77.1953 17.373ZM69.6895 19.4473L68.7905 19.0093L68.6895 19.2166V19.4473H69.6895ZM69.6895 33V34H70.6895V33H69.6895ZM66.4375 33H65.4375V34H66.4375V33ZM66.4375 13.9805V12.9805H65.4375V13.9805H66.4375ZM68.5146 14.0245L68.6201 16.4152L70.6182 16.327L70.5127 13.9364L68.5146 14.0245ZM70.402 16.9933C71.6646 15.4049 73.2743 14.6289 75.3145 14.6289V12.6289C72.6671 12.6289 70.48 13.681 68.8363 15.7488L70.402 16.9933ZM75.3145 14.6289C77.1361 14.6289 78.3362 15.1372 79.1041 15.9961C79.8921 16.8775 80.3799 18.2989 80.3965 20.4394L82.3965 20.4239C82.3779 18.0292 81.8344 16.0493 80.5951 14.6631C79.3357 13.2544 77.5123 12.6289 75.3145 12.6289V14.6289ZM80.3965 20.4316V33H82.3965V20.4316H80.3965ZM81.3965 32H78.1445V34H81.3965V32ZM79.1445 33V20.4141H77.1445V33H79.1445ZM79.1445 20.4055C79.1317 18.909 78.7876 17.6007 77.9216 16.6857L76.469 18.0604C76.8452 18.4579 77.1339 19.177 77.1446 20.4226L79.1445 20.4055ZM77.9281 16.6926C77.0575 15.755 75.7815 15.3887 74.3301 15.3887V17.3887C75.4802 17.3887 76.1144 17.6786 76.4625 18.0535L77.9281 16.6926ZM74.3301 15.3887C73.0866 15.3887 71.9555 15.7241 70.9761 16.4155L72.1294 18.0494C72.7437 17.6158 73.4642 17.3887 74.3301 17.3887V15.3887ZM70.9761 16.4155C70.0356 17.0793 69.3063 17.9504 68.7905 19.0093L70.5884 19.8852C70.9632 19.116 71.4761 18.5105 72.1294 18.0494L70.9761 16.4155ZM68.6895 19.4473V33H70.6895V19.4473H68.6895ZM69.6895 32H66.4375V34H69.6895V32ZM67.4375 33V13.9805H65.4375V33H67.4375ZM66.4375 14.9805H69.5137V12.9805H66.4375V14.9805ZM89.377 13.9805L90.376 13.9364L90.3338 12.9805H89.377V13.9805ZM89.4824 16.3711L88.4834 16.4152L88.6013 19.0867L90.2652 16.9933L89.4824 16.3711ZM101.26 20.4316L102.26 20.4316L102.26 20.4239L101.26 20.4316ZM101.26 33V34H102.26V33H101.26ZM98.0078 33H97.0078V34H98.0078V33ZM98.0078 20.4141L99.0078 20.4141L99.0078 20.4055L98.0078 20.4141ZM97.0586 17.373L96.3258 18.0535L96.3323 18.0604L97.0586 17.373ZM89.5527 19.4473L88.6537 19.0093L88.5527 19.2166V19.4473H89.5527ZM89.5527 33V34H90.5527V33H89.5527ZM86.3008 33H85.3008V34H86.3008V33ZM86.3008 13.9805V12.9805H85.3008V13.9805H86.3008ZM88.3779 14.0245L88.4834 16.4152L90.4815 16.327L90.376 13.9364L88.3779 14.0245ZM90.2652 16.9933C91.5279 15.4049 93.1376 14.6289 95.1777 14.6289V12.6289C92.5304 12.6289 90.3432 13.681 88.6996 15.7488L90.2652 16.9933ZM95.1777 14.6289C96.9994 14.6289 98.1995 15.1372 98.9674 15.9961C99.7554 16.8775 100.243 18.2989 100.26 20.4394L102.26 20.4239C102.241 18.0292 101.698 16.0493 100.458 14.6631C99.199 13.2544 97.3756 12.6289 95.1777 12.6289V14.6289ZM100.26 20.4316V33H102.26V20.4316H100.26ZM101.26 32H98.0078V34H101.26V32ZM99.0078 33V20.4141H97.0078V33H99.0078ZM99.0078 20.4055C98.995 18.909 98.6509 17.6007 97.7849 16.6857L96.3323 18.0604C96.7085 18.4579 96.9972 19.177 97.0078 20.4226L99.0078 20.4055ZM97.7914 16.6926C96.9207 15.755 95.6448 15.3887 94.1934 15.3887V17.3887C95.3435 17.3887 95.9777 17.6786 96.3258 18.0535L97.7914 16.6926ZM94.1934 15.3887C92.9498 15.3887 91.8188 15.7241 90.8393 16.4155L91.9927 18.0494C92.607 17.6158 93.3275 17.3887 94.1934 17.3887V15.3887ZM90.8393 16.4155C89.8989 17.0793 89.1696 17.9504 88.6537 19.0093L90.4517 19.8852C90.8265 19.116 91.3394 18.5105 91.9927 18.0494L90.8393 16.4155ZM88.5527 19.4473V33H90.5527V19.4473H88.5527ZM89.5527 32H86.3008V34H89.5527V32ZM87.3008 33V13.9805H85.3008V33H87.3008ZM86.3008 14.9805H89.377V12.9805H86.3008V14.9805ZM117.906 33L117.012 33.4472L117.288 34H117.906V33ZM117.449 30.9961L118.442 30.875L118.187 28.7875L116.729 30.3026L117.449 30.9961ZM107.412 31.7695L106.746 32.5158L106.754 32.5226L107.412 31.7695ZM107.869 23.1211L108.457 23.9301L108.458 23.9293L107.869 23.1211ZM117.396 21.4688V22.4688H118.396V21.4688H117.396ZM116.377 17.2676L115.67 17.9747L115.676 17.9808L116.377 17.2676ZM109.275 19.2539V20.2539H110.275V19.2539H109.275ZM106.006 19.2539H105.006V20.2539H106.006V19.2539ZM107.008 16.5117L106.213 15.905L106.212 15.9066L107.008 16.5117ZM109.75 14.4023L109.344 13.4885L109.34 13.4901L109.75 14.4023ZM118.715 15.2812L118.051 16.0294L118.055 16.0329L118.715 15.2812ZM120.648 19.7988H121.648V19.7866L121.648 19.7744L120.648 19.7988ZM121.316 32.7188H122.316V32.5121L122.234 32.3223L121.316 32.7188ZM121.316 33V34H122.316V33H121.316ZM117.396 27.6738L118.296 28.111L118.396 27.904V27.6738H117.396ZM117.396 23.7715H118.396V22.7715H117.396V23.7715ZM118.801 32.5528C118.697 32.3463 118.559 31.8322 118.442 30.875L116.457 31.1171C116.574 32.0819 116.74 32.9037 117.012 33.4472L118.801 32.5528ZM116.729 30.3026C115.397 31.6857 113.849 32.3516 112.035 32.3516V34.3516C114.416 34.3516 116.478 33.4472 118.17 31.6896L116.729 30.3026ZM112.035 32.3516C110.359 32.3516 109.065 31.8855 108.07 31.0165L106.754 32.5226C108.174 33.7629 109.962 34.3516 112.035 34.3516V32.3516ZM108.078 31.0233C107.099 30.1503 106.619 29.076 106.619 27.7266H104.619C104.619 29.635 105.334 31.256 106.746 32.5157L108.078 31.0233ZM106.619 27.7266C106.619 26.0407 107.236 24.8173 108.457 23.9301L107.281 22.3121C105.502 23.6046 104.619 25.4515 104.619 27.7266H106.619ZM108.458 23.9293C109.736 22.9979 111.62 22.4688 114.232 22.4688V20.4688C111.383 20.4688 109.025 21.0412 107.28 22.3129L108.458 23.9293ZM114.232 22.4688H117.396V20.4688H114.232V22.4688ZM118.396 21.4688V19.9746H116.396V21.4688H118.396ZM118.396 19.9746C118.396 18.6253 117.985 17.446 117.078 16.5543L115.676 17.9808C116.128 18.4251 116.396 19.0505 116.396 19.9746H118.396ZM117.084 16.5605C116.155 15.6316 114.858 15.248 113.371 15.248V17.248C114.532 17.248 115.239 17.5442 115.67 17.9747L117.084 16.5605ZM113.371 15.248C112.036 15.248 110.843 15.5881 109.855 16.3255L111.051 17.9284C111.633 17.4939 112.386 17.248 113.371 17.248V15.248ZM109.855 16.3255C108.868 17.0623 108.275 18.0478 108.275 19.2539H110.275C110.275 18.7959 110.468 18.3635 111.051 17.9284L109.855 16.3255ZM109.275 18.2539H106.006V20.2539H109.275V18.2539ZM107.006 19.2539C107.006 18.5576 107.246 17.8512 107.804 17.1168L106.212 15.9066C105.434 16.93 105.006 18.0518 105.006 19.2539H107.006ZM107.803 17.1184C108.369 16.3758 109.144 15.7706 110.16 15.3146L109.34 13.4901C108.059 14.0653 107.006 14.8664 106.213 15.905L107.803 17.1184ZM110.156 15.3162C111.177 14.8623 112.309 14.6289 113.564 14.6289V12.6289C112.054 12.6289 110.643 12.9112 109.344 13.4885L110.156 15.3162ZM113.564 14.6289C115.591 14.6289 117.044 15.1362 118.051 16.0294L119.378 14.5331C117.901 13.2232 115.921 12.6289 113.564 12.6289V14.6289ZM118.055 16.0329C119.053 16.908 119.607 18.1307 119.649 19.8232L121.648 19.7744C121.596 17.6232 120.861 15.8342 119.374 14.5296L118.055 16.0329ZM119.648 19.7988V28.5527H121.648V19.7988H119.648ZM119.648 28.5527C119.648 30.3675 119.877 31.9088 120.398 33.1152L122.234 32.3223C121.865 31.4662 121.648 30.2301 121.648 28.5527H119.648ZM120.316 32.7188V33H122.316V32.7188H120.316ZM121.316 32H117.906V34H121.316V32ZM112.51 31.5215C113.711 31.5215 114.849 31.2085 115.91 30.5967L114.91 28.8643C114.143 29.3072 113.348 29.5215 112.51 29.5215V31.5215ZM115.91 30.5967C116.975 29.9824 117.788 29.1564 118.296 28.111L116.497 27.2366C116.185 27.8787 115.674 28.4239 114.91 28.8643L115.91 30.5967ZM118.396 27.6738V23.7715H116.396V27.6738H118.396ZM117.396 22.7715H114.848V24.7715H117.396V22.7715ZM114.848 22.7715C112.791 22.7715 111.084 23.0667 109.86 23.783C108.554 24.5476 107.871 25.7529 107.871 27.2695H109.871C109.871 26.4541 110.185 25.9104 110.87 25.509C111.639 25.0593 112.92 24.7715 114.848 24.7715V22.7715ZM107.871 27.2695C107.871 28.5356 108.306 29.6309 109.245 30.424L110.536 28.8963C110.115 28.541 109.871 28.0426 109.871 27.2695H107.871ZM109.245 30.424C110.14 31.1796 111.256 31.5215 112.51 31.5215V29.5215C111.631 29.5215 111.001 29.2891 110.536 28.8963L109.245 30.424Z" fill="#BF58C8"/>
</g>
<g filter="url(#filter1_d_1_5)">
<path d="M162.654 10.1836H154.428V33H151.07V10.1836H142.861V7.40625H162.654V10.1836ZM163.322 23.3145C163.322 21.4512 163.686 19.7754 164.412 18.2871C165.15 16.7988 166.17 15.6504 167.471 14.8418C168.783 14.0332 170.277 13.6289 171.953 13.6289C174.543 13.6289 176.635 14.5254 178.229 16.3184C179.834 18.1113 180.637 20.4961 180.637 23.4727V23.7012C180.637 25.5527 180.279 27.2168 179.564 28.6934C178.861 30.1582 177.848 31.3008 176.523 32.1211C175.211 32.9414 173.699 33.3516 171.988 33.3516C169.41 33.3516 167.318 32.4551 165.713 30.6621C164.119 28.8691 163.322 26.4961 163.322 23.543V23.3145ZM166.592 23.7012C166.592 25.8105 167.078 27.5039 168.051 28.7812C169.035 30.0586 170.348 30.6973 171.988 30.6973C173.641 30.6973 174.953 30.0527 175.926 28.7637C176.898 27.4629 177.385 25.6465 177.385 23.3145C177.385 21.2285 176.887 19.541 175.891 18.252C174.906 16.9512 173.594 16.3008 171.953 16.3008C170.348 16.3008 169.053 16.9395 168.068 18.2168C167.084 19.4941 166.592 21.3223 166.592 23.7012ZM188.248 33H184.996V6H188.248V33ZM192.607 23.3145C192.607 21.4512 192.971 19.7754 193.697 18.2871C194.436 16.7988 195.455 15.6504 196.756 14.8418C198.068 14.0332 199.562 13.6289 201.238 13.6289C203.828 13.6289 205.92 14.5254 207.514 16.3184C209.119 18.1113 209.922 20.4961 209.922 23.4727V23.7012C209.922 25.5527 209.564 27.2168 208.85 28.6934C208.146 30.1582 207.133 31.3008 205.809 32.1211C204.496 32.9414 202.984 33.3516 201.273 33.3516C198.695 33.3516 196.604 32.4551 194.998 30.6621C193.404 28.8691 192.607 26.4961 192.607 23.543V23.3145ZM195.877 23.7012C195.877 25.8105 196.363 27.5039 197.336 28.7812C198.32 30.0586 199.633 30.6973 201.273 30.6973C202.926 30.6973 204.238 30.0527 205.211 28.7637C206.184 27.4629 206.67 25.6465 206.67 23.3145C206.67 21.2285 206.172 19.541 205.176 18.252C204.191 16.9512 202.879 16.3008 201.238 16.3008C199.633 16.3008 198.338 16.9395 197.354 18.2168C196.369 19.4941 195.877 21.3223 195.877 23.7012ZM215.6 33V16.4941H212.594V13.9805H215.6V12.0293C215.6 9.99023 216.145 8.41406 217.234 7.30078C218.324 6.1875 219.865 5.63086 221.857 5.63086C222.607 5.63086 223.352 5.73047 224.09 5.92969L223.914 8.56641C223.363 8.46094 222.777 8.4082 222.156 8.4082C221.102 8.4082 220.287 8.71875 219.713 9.33984C219.139 9.94922 218.852 10.8281 218.852 11.9766V13.9805H222.912V16.4941H218.852V33H215.6ZM238.258 33C238.07 32.625 237.918 31.957 237.801 30.9961C236.289 32.5664 234.484 33.3516 232.387 33.3516C230.512 33.3516 228.971 32.8242 227.764 31.7695C226.568 30.7031 225.971 29.3555 225.971 27.7266C225.971 25.7461 226.721 24.2109 228.221 23.1211C229.732 22.0195 231.854 21.4688 234.584 21.4688H237.748V19.9746C237.748 18.8379 237.408 17.9355 236.729 17.2676C236.049 16.5879 235.047 16.248 233.723 16.248C232.562 16.248 231.59 16.541 230.805 17.127C230.02 17.7129 229.627 18.4219 229.627 19.2539H226.357C226.357 18.3047 226.691 17.3906 227.359 16.5117C228.039 15.6211 228.953 14.918 230.102 14.4023C231.262 13.8867 232.533 13.6289 233.916 13.6289C236.107 13.6289 237.824 14.1797 239.066 15.2812C240.309 16.3711 240.953 17.877 241 19.7988V28.5527C241 30.2988 241.223 31.6875 241.668 32.7188V33H238.258ZM232.861 30.5215C233.881 30.5215 234.848 30.2578 235.762 29.7305C236.676 29.2031 237.338 28.5176 237.748 27.6738V23.7715H235.199C231.215 23.7715 229.223 24.9375 229.223 27.2695C229.223 28.2891 229.562 29.0859 230.242 29.6602C230.922 30.2344 231.795 30.5215 232.861 30.5215ZM255.291 16.8984C254.799 16.8164 254.266 16.7754 253.691 16.7754C251.559 16.7754 250.111 17.6836 249.35 19.5V33H246.098V13.9805H249.262L249.314 16.1777C250.381 14.4785 251.893 13.6289 253.85 13.6289C254.482 13.6289 254.963 13.7109 255.291 13.875V16.8984ZM261.83 33H258.578V13.9805H261.83V33ZM258.314 8.93555C258.314 8.4082 258.473 7.96289 258.789 7.59961C259.117 7.23633 259.598 7.05469 260.23 7.05469C260.863 7.05469 261.344 7.23633 261.672 7.59961C262 7.96289 262.164 8.4082 262.164 8.93555C262.164 9.46289 262 9.90234 261.672 10.2539C261.344 10.6055 260.863 10.7812 260.23 10.7812C259.598 10.7812 259.117 10.6055 258.789 10.2539C258.473 9.90234 258.314 9.46289 258.314 8.93555Z" fill="#313131"/>
<path d="M162.654 10.1836V11.1836H163.654V10.1836H162.654ZM154.428 10.1836V9.18359H153.428V10.1836H154.428ZM154.428 33V34H155.428V33H154.428ZM151.07 33H150.07V34H151.07V33ZM151.07 10.1836H152.07V9.18359H151.07V10.1836ZM142.861 10.1836H141.861V11.1836H142.861V10.1836ZM142.861 7.40625V6.40625H141.861V7.40625H142.861ZM162.654 7.40625H163.654V6.40625H162.654V7.40625ZM162.654 9.18359H154.428V11.1836H162.654V9.18359ZM153.428 10.1836V33H155.428V10.1836H153.428ZM154.428 32H151.07V34H154.428V32ZM152.07 33V10.1836H150.07V33H152.07ZM151.07 9.18359H142.861V11.1836H151.07V9.18359ZM143.861 10.1836V7.40625H141.861V10.1836H143.861ZM142.861 8.40625H162.654V6.40625H142.861V8.40625ZM161.654 7.40625V10.1836H163.654V7.40625H161.654ZM164.412 18.2871L163.516 17.8427L163.513 17.8484L164.412 18.2871ZM167.471 14.8418L166.946 13.9904L166.943 13.9925L167.471 14.8418ZM178.229 16.3184L177.481 16.9827L177.484 16.9854L178.229 16.3184ZM179.564 28.6934L178.664 28.2576L178.663 28.2606L179.564 28.6934ZM176.523 32.1211L175.997 31.271L175.993 31.2731L176.523 32.1211ZM165.713 30.6621L164.965 31.3265L164.968 31.3292L165.713 30.6621ZM168.051 28.7812L167.255 29.3871L167.259 29.3917L168.051 28.7812ZM175.926 28.7637L176.724 29.366L176.727 29.3625L175.926 28.7637ZM175.891 18.252L175.093 18.8554L175.099 18.8634L175.891 18.252ZM164.322 23.3145C164.322 21.5841 164.659 20.0612 165.311 18.7258L163.513 17.8484C162.712 19.4895 162.322 21.3183 162.322 23.3145H164.322ZM165.308 18.7315C165.971 17.3951 166.869 16.3932 167.999 15.6911L166.943 13.9925C165.471 14.9075 164.33 16.2025 163.516 17.8427L165.308 18.7315ZM167.995 15.6932C169.136 14.9902 170.446 14.6289 171.953 14.6289V12.6289C170.109 12.6289 168.43 13.0762 166.946 13.9904L167.995 15.6932ZM171.953 14.6289C174.283 14.6289 176.093 15.4217 177.481 16.9827L178.976 15.654C177.176 13.6291 174.803 12.6289 171.953 12.6289V14.6289ZM177.484 16.9854C178.888 18.5543 179.637 20.6815 179.637 23.4727H181.637C181.637 20.3107 180.78 17.6684 178.974 15.6513L177.484 16.9854ZM179.637 23.4727V23.7012H181.637V23.4727H179.637ZM179.637 23.7012C179.637 25.4213 179.305 26.9334 178.664 28.2576L180.465 29.1291C181.253 27.5001 181.637 25.6841 181.637 23.7012H179.637ZM178.663 28.2606C178.039 29.5612 177.152 30.5556 175.997 31.271L177.05 32.9712C178.544 32.0459 179.684 30.7552 180.466 29.1261L178.663 28.2606ZM175.993 31.2731C174.856 31.9838 173.532 32.3516 171.988 32.3516V34.3516C173.866 34.3516 175.566 33.899 177.053 32.9691L175.993 31.2731ZM171.988 32.3516C169.672 32.3516 167.859 31.5597 166.458 29.995L164.968 31.3292C166.778 33.3504 169.149 34.3516 171.988 34.3516V32.3516ZM166.46 29.9977C165.065 28.4276 164.322 26.3102 164.322 23.543H162.322C162.322 26.682 163.174 29.3107 164.965 31.3265L166.46 29.9977ZM164.322 23.543V23.3145H162.322V23.543H164.322ZM165.592 23.7012C165.592 25.9607 166.114 27.8879 167.255 29.3871L168.846 28.1754C168.043 27.1199 167.592 25.6604 167.592 23.7012H165.592ZM167.259 29.3917C168.436 30.9196 170.044 31.6973 171.988 31.6973V29.6973C170.651 29.6973 169.634 29.1976 168.843 28.1708L167.259 29.3917ZM171.988 31.6973C173.946 31.6973 175.557 30.9123 176.724 29.366L175.128 28.1614C174.349 29.1932 173.335 29.6973 171.988 29.6973V31.6973ZM176.727 29.3625C177.874 27.828 178.385 25.7715 178.385 23.3145H176.385C176.385 25.5215 175.923 27.0978 175.125 28.1648L176.727 29.3625ZM178.385 23.3145C178.385 21.0699 177.847 19.1486 176.682 17.6405L175.099 18.8634C175.926 19.9335 176.385 21.3871 176.385 23.3145H178.385ZM176.688 17.6485C175.513 16.0963 173.905 15.3008 171.953 15.3008V17.3008C173.283 17.3008 174.299 17.8061 175.093 18.8554L176.688 17.6485ZM171.953 15.3008C170.036 15.3008 168.449 16.0847 167.276 17.6064L168.86 18.8272C169.656 17.7942 170.659 17.3008 171.953 17.3008V15.3008ZM167.276 17.6064C166.106 19.1245 165.592 21.2021 165.592 23.7012H167.592C167.592 21.4424 168.062 19.8638 168.86 18.8272L167.276 17.6064ZM188.248 33V34H189.248V33H188.248ZM184.996 33H183.996V34H184.996V33ZM184.996 6V5H183.996V6H184.996ZM188.248 6H189.248V5H188.248V6ZM188.248 32H184.996V34H188.248V32ZM185.996 33V6H183.996V33H185.996ZM184.996 7H188.248V5H184.996V7ZM187.248 6V33H189.248V6H187.248ZM193.697 18.2871L192.801 17.8427L192.799 17.8484L193.697 18.2871ZM196.756 14.8418L196.231 13.9904L196.228 13.9925L196.756 14.8418ZM207.514 16.3184L206.766 16.9827L206.769 16.9854L207.514 16.3184ZM208.85 28.6934L207.95 28.2576L207.948 28.2606L208.85 28.6934ZM205.809 32.1211L205.282 31.271L205.279 31.2731L205.809 32.1211ZM194.998 30.6621L194.251 31.3265L194.253 31.3292L194.998 30.6621ZM197.336 28.7812L196.54 29.3871L196.544 29.3917L197.336 28.7812ZM205.211 28.7637L206.009 29.366L206.012 29.3625L205.211 28.7637ZM205.176 18.252L204.378 18.8554L204.384 18.8634L205.176 18.252ZM193.607 23.3145C193.607 21.5841 193.944 20.0612 194.596 18.7258L192.799 17.8484C191.997 19.4895 191.607 21.3183 191.607 23.3145H193.607ZM194.593 18.7315C195.256 17.3951 196.154 16.3932 197.284 15.6911L196.228 13.9925C194.756 14.9075 193.615 16.2025 192.801 17.8427L194.593 18.7315ZM197.28 15.6932C198.422 14.9902 199.731 14.6289 201.238 14.6289V12.6289C199.394 12.6289 197.715 13.0762 196.231 13.9904L197.28 15.6932ZM201.238 14.6289C203.568 14.6289 205.379 15.4217 206.766 16.9827L208.261 15.654C206.461 13.6291 204.088 12.6289 201.238 12.6289V14.6289ZM206.769 16.9854C208.173 18.5543 208.922 20.6815 208.922 23.4727H210.922C210.922 20.3107 210.065 17.6684 208.259 15.6513L206.769 16.9854ZM208.922 23.4727V23.7012H210.922V23.4727H208.922ZM208.922 23.7012C208.922 25.4213 208.591 26.9334 207.95 28.2576L209.75 29.1291C210.538 27.5001 210.922 25.6841 210.922 23.7012H208.922ZM207.948 28.2606C207.324 29.5612 206.437 30.5556 205.282 31.271L206.335 32.9712C207.829 32.0459 208.969 30.7552 209.751 29.1261L207.948 28.2606ZM205.279 31.2731C204.141 31.9838 202.817 32.3516 201.273 32.3516V34.3516C203.151 34.3516 204.851 33.899 206.339 32.9691L205.279 31.2731ZM201.273 32.3516C198.957 32.3516 197.144 31.5597 195.743 29.995L194.253 31.3292C196.063 33.3504 198.434 34.3516 201.273 34.3516V32.3516ZM195.745 29.9977C194.35 28.4276 193.607 26.3102 193.607 23.543H191.607C191.607 26.682 192.459 29.3107 194.251 31.3265L195.745 29.9977ZM193.607 23.543V23.3145H191.607V23.543H193.607ZM194.877 23.7012C194.877 25.9607 195.399 27.8879 196.54 29.3871L198.132 28.1754C197.328 27.1199 196.877 25.6604 196.877 23.7012H194.877ZM196.544 29.3917C197.721 30.9196 199.329 31.6973 201.273 31.6973V29.6973C199.937 29.6973 198.919 29.1976 198.128 28.1708L196.544 29.3917ZM201.273 31.6973C203.231 31.6973 204.842 30.9123 206.009 29.366L204.413 28.1614C203.634 29.1932 202.621 29.6973 201.273 29.6973V31.6973ZM206.012 29.3625C207.159 27.828 207.67 25.7715 207.67 23.3145H205.67C205.67 25.5215 205.208 27.0978 204.41 28.1648L206.012 29.3625ZM207.67 23.3145C207.67 21.0699 207.132 19.1486 205.967 17.6405L204.384 18.8634C205.211 19.9335 205.67 21.3871 205.67 23.3145H207.67ZM205.973 17.6485C204.799 16.0963 203.19 15.3008 201.238 15.3008V17.3008C202.568 17.3008 203.584 17.8061 204.378 18.8554L205.973 17.6485ZM201.238 15.3008C199.321 15.3008 197.734 16.0847 196.561 17.6064L198.146 18.8272C198.942 17.7942 199.945 17.3008 201.238 17.3008V15.3008ZM196.561 17.6064C195.392 19.1245 194.877 21.2021 194.877 23.7012H196.877C196.877 21.4424 197.347 19.8638 198.146 18.8272L196.561 17.6064ZM215.6 33H214.6V34H215.6V33ZM215.6 16.4941H216.6V15.4941H215.6V16.4941ZM212.594 16.4941H211.594V17.4941H212.594V16.4941ZM212.594 13.9805V12.9805H211.594V13.9805H212.594ZM215.6 13.9805V14.9805H216.6V13.9805H215.6ZM224.09 5.92969L225.088 5.99621L225.142 5.17788L224.35 4.96422L224.09 5.92969ZM223.914 8.56641L223.726 9.54856L224.837 9.76124L224.912 8.63293L223.914 8.56641ZM219.713 9.33984L220.441 10.0257L220.447 10.0187L219.713 9.33984ZM218.852 13.9805H217.852V14.9805H218.852V13.9805ZM222.912 13.9805H223.912V12.9805H222.912V13.9805ZM222.912 16.4941V17.4941H223.912V16.4941H222.912ZM218.852 16.4941V15.4941H217.852V16.4941H218.852ZM218.852 33V34H219.852V33H218.852ZM216.6 33V16.4941H214.6V33H216.6ZM215.6 15.4941H212.594V17.4941H215.6V15.4941ZM213.594 16.4941V13.9805H211.594V16.4941H213.594ZM212.594 14.9805H215.6V12.9805H212.594V14.9805ZM216.6 13.9805V12.0293H214.6V13.9805H216.6ZM216.6 12.0293C216.6 10.1681 217.093 8.87439 217.949 8.00033L216.52 6.60124C215.196 7.95373 214.6 9.81242 214.6 12.0293H216.6ZM217.949 8.00033C218.802 7.12904 220.055 6.63086 221.857 6.63086V4.63086C219.675 4.63086 217.847 5.24596 216.52 6.60124L217.949 8.00033ZM221.857 6.63086C222.518 6.63086 223.174 6.71841 223.829 6.89516L224.35 4.96422C223.529 4.74253 222.697 4.63086 221.857 4.63086V6.63086ZM223.092 5.86317L222.916 8.49989L224.912 8.63293L225.088 5.99621L223.092 5.86317ZM224.102 7.58425C223.483 7.46572 222.834 7.4082 222.156 7.4082V9.4082C222.721 9.4082 223.243 9.45615 223.726 9.54856L224.102 7.58425ZM222.156 7.4082C220.896 7.4082 219.787 7.78669 218.979 8.66099L220.447 10.0187C220.787 9.65081 221.307 9.4082 222.156 9.4082V7.4082ZM218.985 8.65404C218.18 9.5087 217.852 10.6692 217.852 11.9766H219.852C219.852 10.9871 220.098 10.3897 220.441 10.0256L218.985 8.65404ZM217.852 11.9766V13.9805H219.852V11.9766H217.852ZM218.852 14.9805H222.912V12.9805H218.852V14.9805ZM221.912 13.9805V16.4941H223.912V13.9805H221.912ZM222.912 15.4941H218.852V17.4941H222.912V15.4941ZM217.852 16.4941V33H219.852V16.4941H217.852ZM218.852 32H215.6V34H218.852V32ZM238.258 33L237.363 33.4472L237.64 34H238.258V33ZM237.801 30.9961L238.793 30.875L238.539 28.7875L237.08 30.3026L237.801 30.9961ZM227.764 31.7695L227.098 32.5158L227.106 32.5226L227.764 31.7695ZM228.221 23.1211L228.808 23.9301L228.81 23.9293L228.221 23.1211ZM237.748 21.4688V22.4688H238.748V21.4688H237.748ZM236.729 17.2676L236.021 17.9747L236.028 17.9808L236.729 17.2676ZM229.627 19.2539V20.2539H230.627V19.2539H229.627ZM226.357 19.2539H225.357V20.2539H226.357V19.2539ZM227.359 16.5117L226.564 15.905L226.563 15.9066L227.359 16.5117ZM230.102 14.4023L229.695 13.4885L229.692 13.4901L230.102 14.4023ZM239.066 15.2812L238.403 16.0294L238.407 16.0329L239.066 15.2812ZM241 19.7988H242V19.7866L242 19.7744L241 19.7988ZM241.668 32.7188H242.668V32.5121L242.586 32.3223L241.668 32.7188ZM241.668 33V34H242.668V33H241.668ZM237.748 27.6738L238.647 28.111L238.748 27.904V27.6738H237.748ZM237.748 23.7715H238.748V22.7715H237.748V23.7715ZM239.152 32.5528C239.049 32.3463 238.91 31.8322 238.793 30.875L236.808 31.1171C236.926 32.0819 237.092 32.9037 237.363 33.4472L239.152 32.5528ZM237.08 30.3026C235.749 31.6857 234.201 32.3516 232.387 32.3516V34.3516C234.768 34.3516 236.829 33.4472 238.521 31.6896L237.08 30.3026ZM232.387 32.3516C230.71 32.3516 229.416 31.8855 228.422 31.0165L227.106 32.5226C228.525 33.7629 230.313 34.3516 232.387 34.3516V32.3516ZM228.429 31.0233C227.451 30.1503 226.971 29.076 226.971 27.7266H224.971C224.971 29.635 225.686 31.256 227.098 32.5157L228.429 31.0233ZM226.971 27.7266C226.971 26.0407 227.587 24.8173 228.808 23.9301L227.633 22.3121C225.854 23.6046 224.971 25.4515 224.971 27.7266H226.971ZM228.81 23.9293C230.088 22.9979 231.972 22.4688 234.584 22.4688V20.4688C231.735 20.4688 229.377 21.0412 227.632 22.3129L228.81 23.9293ZM234.584 22.4688H237.748V20.4688H234.584V22.4688ZM238.748 21.4688V19.9746H236.748V21.4688H238.748ZM238.748 19.9746C238.748 18.6253 238.337 17.446 237.429 16.5543L236.028 17.9808C236.48 18.4251 236.748 19.0505 236.748 19.9746H238.748ZM237.436 16.5605C236.507 15.6316 235.21 15.248 233.723 15.248V17.248C234.884 17.248 235.591 17.5442 236.021 17.9747L237.436 16.5605ZM233.723 15.248C232.388 15.248 231.195 15.5881 230.207 16.3255L231.403 17.9284C231.985 17.4939 232.737 17.248 233.723 17.248V15.248ZM230.207 16.3255C229.219 17.0623 228.627 18.0478 228.627 19.2539H230.627C230.627 18.7959 230.82 18.3635 231.403 17.9284L230.207 16.3255ZM229.627 18.2539H226.357V20.2539H229.627V18.2539ZM227.357 19.2539C227.357 18.5576 227.597 17.8512 228.156 17.1168L226.563 15.9066C225.785 16.93 225.357 18.0518 225.357 19.2539H227.357ZM228.154 17.1184C228.721 16.3758 229.496 15.7706 230.511 15.3146L229.692 13.4901C228.411 14.0653 227.357 14.8664 226.564 15.905L228.154 17.1184ZM230.508 15.3162C231.529 14.8623 232.661 14.6289 233.916 14.6289V12.6289C232.406 12.6289 230.994 12.9112 229.695 13.4885L230.508 15.3162ZM233.916 14.6289C235.943 14.6289 237.396 15.1362 238.403 16.0294L239.73 14.5331C238.253 13.2232 236.272 12.6289 233.916 12.6289V14.6289ZM238.407 16.0329C239.404 16.908 239.959 18.1307 240 19.8232L242 19.7744C241.947 17.6232 241.213 15.8342 239.726 14.5296L238.407 16.0329ZM240 19.7988V28.5527H242V19.7988H240ZM240 28.5527C240 30.3675 240.229 31.9088 240.75 33.1152L242.586 32.3223C242.216 31.4662 242 30.2301 242 28.5527H240ZM240.668 32.7188V33H242.668V32.7188H240.668ZM241.668 32H238.258V34H241.668V32ZM232.861 31.5215C234.063 31.5215 235.201 31.2085 236.261 30.5967L235.262 28.8643C234.494 29.3072 233.699 29.5215 232.861 29.5215V31.5215ZM236.261 30.5967C237.326 29.9824 238.139 29.1564 238.647 28.111L236.849 27.2366C236.537 27.8787 236.025 28.4239 235.262 28.8643L236.261 30.5967ZM238.748 27.6738V23.7715H236.748V27.6738H238.748ZM237.748 22.7715H235.199V24.7715H237.748V22.7715ZM235.199 22.7715C233.142 22.7715 231.435 23.0667 230.212 23.783C228.905 24.5476 228.223 25.7529 228.223 27.2695H230.223C230.223 26.4541 230.536 25.9104 231.222 25.509C231.99 25.0593 233.272 24.7715 235.199 24.7715V22.7715ZM228.223 27.2695C228.223 28.5356 228.658 29.6309 229.597 30.424L230.888 28.8963C230.467 28.541 230.223 28.0426 230.223 27.2695H228.223ZM229.597 30.424C230.491 31.1796 231.608 31.5215 232.861 31.5215V29.5215C231.982 29.5215 231.353 29.2891 230.888 28.8963L229.597 30.424ZM255.291 16.8984L255.127 17.8848L256.291 18.0789V16.8984H255.291ZM249.35 19.5L248.427 19.1133L248.35 19.2988V19.5H249.35ZM249.35 33V34H250.35V33H249.35ZM246.098 33H245.098V34H246.098V33ZM246.098 13.9805V12.9805H245.098V13.9805H246.098ZM249.262 13.9805L250.261 13.9565L250.238 12.9805H249.262V13.9805ZM249.314 16.1777L248.315 16.2017L248.394 19.5248L250.161 16.7093L249.314 16.1777ZM255.291 13.875H256.291V13.257L255.738 12.9806L255.291 13.875ZM255.455 15.912C254.902 15.8197 254.313 15.7754 253.691 15.7754V17.7754C254.219 17.7754 254.696 17.8131 255.127 17.8848L255.455 15.912ZM253.691 15.7754C252.483 15.7754 251.393 16.0333 250.475 16.6095C249.551 17.1892 248.875 18.0451 248.427 19.1133L250.272 19.8867C250.586 19.1385 251.014 18.632 251.538 18.3036C252.067 17.9716 252.767 17.7754 253.691 17.7754V15.7754ZM248.35 19.5V33H250.35V19.5H248.35ZM249.35 32H246.098V34H249.35V32ZM247.098 33V13.9805H245.098V33H247.098ZM246.098 14.9805H249.262V12.9805H246.098V14.9805ZM248.262 14.0045L248.315 16.2017L250.314 16.1537L250.261 13.9565L248.262 14.0045ZM250.161 16.7093C251.051 15.2927 252.247 14.6289 253.85 14.6289V12.6289C251.538 12.6289 249.711 13.6644 248.467 15.6462L250.161 16.7093ZM253.85 14.6289C254.424 14.6289 254.721 14.7081 254.844 14.7694L255.738 12.9806C255.205 12.7138 254.54 12.6289 253.85 12.6289V14.6289ZM254.291 13.875V16.8984H256.291V13.875H254.291ZM261.83 33V34H262.83V33H261.83ZM258.578 33H257.578V34H258.578V33ZM258.578 13.9805V12.9805H257.578V13.9805H258.578ZM261.83 13.9805H262.83V12.9805H261.83V13.9805ZM258.789 7.59961L258.047 6.92932L258.041 6.93602L258.035 6.94283L258.789 7.59961ZM258.789 10.2539L258.046 10.9229L258.052 10.9296L258.058 10.9362L258.789 10.2539ZM261.83 32H258.578V34H261.83V32ZM259.578 33V13.9805H257.578V33H259.578ZM258.578 14.9805H261.83V12.9805H258.578V14.9805ZM260.83 13.9805V33H262.83V13.9805H260.83ZM259.314 8.93555C259.314 8.62501 259.401 8.41986 259.543 8.25639L258.035 6.94283C257.545 7.50592 257.314 8.19139 257.314 8.93555H259.314ZM259.531 8.2699C259.618 8.17393 259.793 8.05469 260.23 8.05469V6.05469C259.403 6.05469 258.617 6.29872 258.047 6.92932L259.531 8.2699ZM260.23 8.05469C260.668 8.05469 260.843 8.17393 260.93 8.2699L262.414 6.92932C261.844 6.29872 261.058 6.05469 260.23 6.05469V8.05469ZM260.93 8.2699C261.078 8.43451 261.164 8.63504 261.164 8.93555H263.164C263.164 8.18137 262.922 7.49128 262.414 6.92932L260.93 8.2699ZM261.164 8.93555C261.164 9.23622 261.079 9.42378 260.941 9.57159L262.403 10.9362C262.921 10.3809 263.164 9.68956 263.164 8.93555H261.164ZM260.941 9.57159C260.857 9.66191 260.678 9.78125 260.23 9.78125V11.7812C261.049 11.7812 261.831 11.549 262.403 10.9362L260.941 9.57159ZM260.23 9.78125C259.783 9.78125 259.604 9.66191 259.52 9.57159L258.058 10.9362C258.63 11.549 259.412 11.7812 260.23 11.7812V9.78125ZM259.532 9.58494C259.401 9.43854 259.314 9.24644 259.314 8.93555H257.314C257.314 9.67935 257.545 10.3662 258.046 10.9229L259.532 9.58494Z" fill="#313131"/>
<path d="M162.654 10.1836V11.1836H163.654V10.1836H162.654ZM154.428 10.1836V9.18359H153.428V10.1836H154.428ZM154.428 33V34H155.428V33H154.428ZM151.07 33H150.07V34H151.07V33ZM151.07 10.1836H152.07V9.18359H151.07V10.1836ZM142.861 10.1836H141.861V11.1836H142.861V10.1836ZM142.861 7.40625V6.40625H141.861V7.40625H142.861ZM162.654 7.40625H163.654V6.40625H162.654V7.40625ZM162.654 9.18359H154.428V11.1836H162.654V9.18359ZM153.428 10.1836V33H155.428V10.1836H153.428ZM154.428 32H151.07V34H154.428V32ZM152.07 33V10.1836H150.07V33H152.07ZM151.07 9.18359H142.861V11.1836H151.07V9.18359ZM143.861 10.1836V7.40625H141.861V10.1836H143.861ZM142.861 8.40625H162.654V6.40625H142.861V8.40625ZM161.654 7.40625V10.1836H163.654V7.40625H161.654ZM164.412 18.2871L163.516 17.8427L163.513 17.8484L164.412 18.2871ZM167.471 14.8418L166.946 13.9904L166.943 13.9925L167.471 14.8418ZM178.229 16.3184L177.481 16.9827L177.484 16.9854L178.229 16.3184ZM179.564 28.6934L178.664 28.2576L178.663 28.2606L179.564 28.6934ZM176.523 32.1211L175.997 31.271L175.993 31.2731L176.523 32.1211ZM165.713 30.6621L164.965 31.3265L164.968 31.3292L165.713 30.6621ZM168.051 28.7812L167.255 29.3871L167.259 29.3917L168.051 28.7812ZM175.926 28.7637L176.724 29.366L176.727 29.3625L175.926 28.7637ZM175.891 18.252L175.093 18.8554L175.099 18.8634L175.891 18.252ZM164.322 23.3145C164.322 21.5841 164.659 20.0612 165.311 18.7258L163.513 17.8484C162.712 19.4895 162.322 21.3183 162.322 23.3145H164.322ZM165.308 18.7315C165.971 17.3951 166.869 16.3932 167.999 15.6911L166.943 13.9925C165.471 14.9075 164.33 16.2025 163.516 17.8427L165.308 18.7315ZM167.995 15.6932C169.136 14.9902 170.446 14.6289 171.953 14.6289V12.6289C170.109 12.6289 168.43 13.0762 166.946 13.9904L167.995 15.6932ZM171.953 14.6289C174.283 14.6289 176.093 15.4217 177.481 16.9827L178.976 15.654C177.176 13.6291 174.803 12.6289 171.953 12.6289V14.6289ZM177.484 16.9854C178.888 18.5543 179.637 20.6815 179.637 23.4727H181.637C181.637 20.3107 180.78 17.6684 178.974 15.6513L177.484 16.9854ZM179.637 23.4727V23.7012H181.637V23.4727H179.637ZM179.637 23.7012C179.637 25.4213 179.305 26.9334 178.664 28.2576L180.465 29.1291C181.253 27.5001 181.637 25.6841 181.637 23.7012H179.637ZM178.663 28.2606C178.039 29.5612 177.152 30.5556 175.997 31.271L177.05 32.9712C178.544 32.0459 179.684 30.7552 180.466 29.1261L178.663 28.2606ZM175.993 31.2731C174.856 31.9838 173.532 32.3516 171.988 32.3516V34.3516C173.866 34.3516 175.566 33.899 177.053 32.9691L175.993 31.2731ZM171.988 32.3516C169.672 32.3516 167.859 31.5597 166.458 29.995L164.968 31.3292C166.778 33.3504 169.149 34.3516 171.988 34.3516V32.3516ZM166.46 29.9977C165.065 28.4276 164.322 26.3102 164.322 23.543H162.322C162.322 26.682 163.174 29.3107 164.965 31.3265L166.46 29.9977ZM164.322 23.543V23.3145H162.322V23.543H164.322ZM165.592 23.7012C165.592 25.9607 166.114 27.8879 167.255 29.3871L168.846 28.1754C168.043 27.1199 167.592 25.6604 167.592 23.7012H165.592ZM167.259 29.3917C168.436 30.9196 170.044 31.6973 171.988 31.6973V29.6973C170.651 29.6973 169.634 29.1976 168.843 28.1708L167.259 29.3917ZM171.988 31.6973C173.946 31.6973 175.557 30.9123 176.724 29.366L175.128 28.1614C174.349 29.1932 173.335 29.6973 171.988 29.6973V31.6973ZM176.727 29.3625C177.874 27.828 178.385 25.7715 178.385 23.3145H176.385C176.385 25.5215 175.923 27.0978 175.125 28.1648L176.727 29.3625ZM178.385 23.3145C178.385 21.0699 177.847 19.1486 176.682 17.6405L175.099 18.8634C175.926 19.9335 176.385 21.3871 176.385 23.3145H178.385ZM176.688 17.6485C175.513 16.0963 173.905 15.3008 171.953 15.3008V17.3008C173.283 17.3008 174.299 17.8061 175.093 18.8554L176.688 17.6485ZM171.953 15.3008C170.036 15.3008 168.449 16.0847 167.276 17.6064L168.86 18.8272C169.656 17.7942 170.659 17.3008 171.953 17.3008V15.3008ZM167.276 17.6064C166.106 19.1245 165.592 21.2021 165.592 23.7012H167.592C167.592 21.4424 168.062 19.8638 168.86 18.8272L167.276 17.6064ZM188.248 33V34H189.248V33H188.248ZM184.996 33H183.996V34H184.996V33ZM184.996 6V5H183.996V6H184.996ZM188.248 6H189.248V5H188.248V6ZM188.248 32H184.996V34H188.248V32ZM185.996 33V6H183.996V33H185.996ZM184.996 7H188.248V5H184.996V7ZM187.248 6V33H189.248V6H187.248ZM193.697 18.2871L192.801 17.8427L192.799 17.8484L193.697 18.2871ZM196.756 14.8418L196.231 13.9904L196.228 13.9925L196.756 14.8418ZM207.514 16.3184L206.766 16.9827L206.769 16.9854L207.514 16.3184ZM208.85 28.6934L207.95 28.2576L207.948 28.2606L208.85 28.6934ZM205.809 32.1211L205.282 31.271L205.279 31.2731L205.809 32.1211ZM194.998 30.6621L194.251 31.3265L194.253 31.3292L194.998 30.6621ZM197.336 28.7812L196.54 29.3871L196.544 29.3917L197.336 28.7812ZM205.211 28.7637L206.009 29.366L206.012 29.3625L205.211 28.7637ZM205.176 18.252L204.378 18.8554L204.384 18.8634L205.176 18.252ZM193.607 23.3145C193.607 21.5841 193.944 20.0612 194.596 18.7258L192.799 17.8484C191.997 19.4895 191.607 21.3183 191.607 23.3145H193.607ZM194.593 18.7315C195.256 17.3951 196.154 16.3932 197.284 15.6911L196.228 13.9925C194.756 14.9075 193.615 16.2025 192.801 17.8427L194.593 18.7315ZM197.28 15.6932C198.422 14.9902 199.731 14.6289 201.238 14.6289V12.6289C199.394 12.6289 197.715 13.0762 196.231 13.9904L197.28 15.6932ZM201.238 14.6289C203.568 14.6289 205.379 15.4217 206.766 16.9827L208.261 15.654C206.461 13.6291 204.088 12.6289 201.238 12.6289V14.6289ZM206.769 16.9854C208.173 18.5543 208.922 20.6815 208.922 23.4727H210.922C210.922 20.3107 210.065 17.6684 208.259 15.6513L206.769 16.9854ZM208.922 23.4727V23.7012H210.922V23.4727H208.922ZM208.922 23.7012C208.922 25.4213 208.591 26.9334 207.95 28.2576L209.75 29.1291C210.538 27.5001 210.922 25.6841 210.922 23.7012H208.922ZM207.948 28.2606C207.324 29.5612 206.437 30.5556 205.282 31.271L206.335 32.9712C207.829 32.0459 208.969 30.7552 209.751 29.1261L207.948 28.2606ZM205.279 31.2731C204.141 31.9838 202.817 32.3516 201.273 32.3516V34.3516C203.151 34.3516 204.851 33.899 206.339 32.9691L205.279 31.2731ZM201.273 32.3516C198.957 32.3516 197.144 31.5597 195.743 29.995L194.253 31.3292C196.063 33.3504 198.434 34.3516 201.273 34.3516V32.3516ZM195.745 29.9977C194.35 28.4276 193.607 26.3102 193.607 23.543H191.607C191.607 26.682 192.459 29.3107 194.251 31.3265L195.745 29.9977ZM193.607 23.543V23.3145H191.607V23.543H193.607ZM194.877 23.7012C194.877 25.9607 195.399 27.8879 196.54 29.3871L198.132 28.1754C197.328 27.1199 196.877 25.6604 196.877 23.7012H194.877ZM196.544 29.3917C197.721 30.9196 199.329 31.6973 201.273 31.6973V29.6973C199.937 29.6973 198.919 29.1976 198.128 28.1708L196.544 29.3917ZM201.273 31.6973C203.231 31.6973 204.842 30.9123 206.009 29.366L204.413 28.1614C203.634 29.1932 202.621 29.6973 201.273 29.6973V31.6973ZM206.012 29.3625C207.159 27.828 207.67 25.7715 207.67 23.3145H205.67C205.67 25.5215 205.208 27.0978 204.41 28.1648L206.012 29.3625ZM207.67 23.3145C207.67 21.0699 207.132 19.1486 205.967 17.6405L204.384 18.8634C205.211 19.9335 205.67 21.3871 205.67 23.3145H207.67ZM205.973 17.6485C204.799 16.0963 203.19 15.3008 201.238 15.3008V17.3008C202.568 17.3008 203.584 17.8061 204.378 18.8554L205.973 17.6485ZM201.238 15.3008C199.321 15.3008 197.734 16.0847 196.561 17.6064L198.146 18.8272C198.942 17.7942 199.945 17.3008 201.238 17.3008V15.3008ZM196.561 17.6064C195.392 19.1245 194.877 21.2021 194.877 23.7012H196.877C196.877 21.4424 197.347 19.8638 198.146 18.8272L196.561 17.6064ZM215.6 33H214.6V34H215.6V33ZM215.6 16.4941H216.6V15.4941H215.6V16.4941ZM212.594 16.4941H211.594V17.4941H212.594V16.4941ZM212.594 13.9805V12.9805H211.594V13.9805H212.594ZM215.6 13.9805V14.9805H216.6V13.9805H215.6ZM224.09 5.92969L225.088 5.99621L225.142 5.17788L224.35 4.96422L224.09 5.92969ZM223.914 8.56641L223.726 9.54856L224.837 9.76124L224.912 8.63293L223.914 8.56641ZM219.713 9.33984L220.441 10.0257L220.447 10.0187L219.713 9.33984ZM218.852 13.9805H217.852V14.9805H218.852V13.9805ZM222.912 13.9805H223.912V12.9805H222.912V13.9805ZM222.912 16.4941V17.4941H223.912V16.4941H222.912ZM218.852 16.4941V15.4941H217.852V16.4941H218.852ZM218.852 33V34H219.852V33H218.852ZM216.6 33V16.4941H214.6V33H216.6ZM215.6 15.4941H212.594V17.4941H215.6V15.4941ZM213.594 16.4941V13.9805H211.594V16.4941H213.594ZM212.594 14.9805H215.6V12.9805H212.594V14.9805ZM216.6 13.9805V12.0293H214.6V13.9805H216.6ZM216.6 12.0293C216.6 10.1681 217.093 8.87439 217.949 8.00033L216.52 6.60124C215.196 7.95373 214.6 9.81242 214.6 12.0293H216.6ZM217.949 8.00033C218.802 7.12904 220.055 6.63086 221.857 6.63086V4.63086C219.675 4.63086 217.847 5.24596 216.52 6.60124L217.949 8.00033ZM221.857 6.63086C222.518 6.63086 223.174 6.71841 223.829 6.89516L224.35 4.96422C223.529 4.74253 222.697 4.63086 221.857 4.63086V6.63086ZM223.092 5.86317L222.916 8.49989L224.912 8.63293L225.088 5.99621L223.092 5.86317ZM224.102 7.58425C223.483 7.46572 222.834 7.4082 222.156 7.4082V9.4082C222.721 9.4082 223.243 9.45615 223.726 9.54856L224.102 7.58425ZM222.156 7.4082C220.896 7.4082 219.787 7.78669 218.979 8.66099L220.447 10.0187C220.787 9.65081 221.307 9.4082 222.156 9.4082V7.4082ZM218.985 8.65404C218.18 9.5087 217.852 10.6692 217.852 11.9766H219.852C219.852 10.9871 220.098 10.3897 220.441 10.0256L218.985 8.65404ZM217.852 11.9766V13.9805H219.852V11.9766H217.852ZM218.852 14.9805H222.912V12.9805H218.852V14.9805ZM221.912 13.9805V16.4941H223.912V13.9805H221.912ZM222.912 15.4941H218.852V17.4941H222.912V15.4941ZM217.852 16.4941V33H219.852V16.4941H217.852ZM218.852 32H215.6V34H218.852V32ZM238.258 33L237.363 33.4472L237.64 34H238.258V33ZM237.801 30.9961L238.793 30.875L238.539 28.7875L237.08 30.3026L237.801 30.9961ZM227.764 31.7695L227.098 32.5158L227.106 32.5226L227.764 31.7695ZM228.221 23.1211L228.808 23.9301L228.81 23.9293L228.221 23.1211ZM237.748 21.4688V22.4688H238.748V21.4688H237.748ZM236.729 17.2676L236.021 17.9747L236.028 17.9808L236.729 17.2676ZM229.627 19.2539V20.2539H230.627V19.2539H229.627ZM226.357 19.2539H225.357V20.2539H226.357V19.2539ZM227.359 16.5117L226.564 15.905L226.563 15.9066L227.359 16.5117ZM230.102 14.4023L229.695 13.4885L229.692 13.4901L230.102 14.4023ZM239.066 15.2812L238.403 16.0294L238.407 16.0329L239.066 15.2812ZM241 19.7988H242V19.7866L242 19.7744L241 19.7988ZM241.668 32.7188H242.668V32.5121L242.586 32.3223L241.668 32.7188ZM241.668 33V34H242.668V33H241.668ZM237.748 27.6738L238.647 28.111L238.748 27.904V27.6738H237.748ZM237.748 23.7715H238.748V22.7715H237.748V23.7715ZM239.152 32.5528C239.049 32.3463 238.91 31.8322 238.793 30.875L236.808 31.1171C236.926 32.0819 237.092 32.9037 237.363 33.4472L239.152 32.5528ZM237.08 30.3026C235.749 31.6857 234.201 32.3516 232.387 32.3516V34.3516C234.768 34.3516 236.829 33.4472 238.521 31.6896L237.08 30.3026ZM232.387 32.3516C230.71 32.3516 229.416 31.8855 228.422 31.0165L227.106 32.5226C228.525 33.7629 230.313 34.3516 232.387 34.3516V32.3516ZM228.429 31.0233C227.451 30.1503 226.971 29.076 226.971 27.7266H224.971C224.971 29.635 225.686 31.256 227.098 32.5157L228.429 31.0233ZM226.971 27.7266C226.971 26.0407 227.587 24.8173 228.808 23.9301L227.633 22.3121C225.854 23.6046 224.971 25.4515 224.971 27.7266H226.971ZM228.81 23.9293C230.088 22.9979 231.972 22.4688 234.584 22.4688V20.4688C231.735 20.4688 229.377 21.0412 227.632 22.3129L228.81 23.9293ZM234.584 22.4688H237.748V20.4688H234.584V22.4688ZM238.748 21.4688V19.9746H236.748V21.4688H238.748ZM238.748 19.9746C238.748 18.6253 238.337 17.446 237.429 16.5543L236.028 17.9808C236.48 18.4251 236.748 19.0505 236.748 19.9746H238.748ZM237.436 16.5605C236.507 15.6316 235.21 15.248 233.723 15.248V17.248C234.884 17.248 235.591 17.5442 236.021 17.9747L237.436 16.5605ZM233.723 15.248C232.388 15.248 231.195 15.5881 230.207 16.3255L231.403 17.9284C231.985 17.4939 232.737 17.248 233.723 17.248V15.248ZM230.207 16.3255C229.219 17.0623 228.627 18.0478 228.627 19.2539H230.627C230.627 18.7959 230.82 18.3635 231.403 17.9284L230.207 16.3255ZM229.627 18.2539H226.357V20.2539H229.627V18.2539ZM227.357 19.2539C227.357 18.5576 227.597 17.8512 228.156 17.1168L226.563 15.9066C225.785 16.93 225.357 18.0518 225.357 19.2539H227.357ZM228.154 17.1184C228.721 16.3758 229.496 15.7706 230.511 15.3146L229.692 13.4901C228.411 14.0653 227.357 14.8664 226.564 15.905L228.154 17.1184ZM230.508 15.3162C231.529 14.8623 232.661 14.6289 233.916 14.6289V12.6289C232.406 12.6289 230.994 12.9112 229.695 13.4885L230.508 15.3162ZM233.916 14.6289C235.943 14.6289 237.396 15.1362 238.403 16.0294L239.73 14.5331C238.253 13.2232 236.272 12.6289 233.916 12.6289V14.6289ZM238.407 16.0329C239.404 16.908 239.959 18.1307 240 19.8232L242 19.7744C241.947 17.6232 241.213 15.8342 239.726 14.5296L238.407 16.0329ZM240 19.7988V28.5527H242V19.7988H240ZM240 28.5527C240 30.3675 240.229 31.9088 240.75 33.1152L242.586 32.3223C242.216 31.4662 242 30.2301 242 28.5527H240ZM240.668 32.7188V33H242.668V32.7188H240.668ZM241.668 32H238.258V34H241.668V32ZM232.861 31.5215C234.063 31.5215 235.201 31.2085 236.261 30.5967L235.262 28.8643C234.494 29.3072 233.699 29.5215 232.861 29.5215V31.5215ZM236.261 30.5967C237.326 29.9824 238.139 29.1564 238.647 28.111L236.849 27.2366C236.537 27.8787 236.025 28.4239 235.262 28.8643L236.261 30.5967ZM238.748 27.6738V23.7715H236.748V27.6738H238.748ZM237.748 22.7715H235.199V24.7715H237.748V22.7715ZM235.199 22.7715C233.142 22.7715 231.435 23.0667 230.212 23.783C228.905 24.5476 228.223 25.7529 228.223 27.2695H230.223C230.223 26.4541 230.536 25.9104 231.222 25.509C231.99 25.0593 233.272 24.7715 235.199 24.7715V22.7715ZM228.223 27.2695C228.223 28.5356 228.658 29.6309 229.597 30.424L230.888 28.8963C230.467 28.541 230.223 28.0426 230.223 27.2695H228.223ZM229.597 30.424C230.491 31.1796 231.608 31.5215 232.861 31.5215V29.5215C231.982 29.5215 231.353 29.2891 230.888 28.8963L229.597 30.424ZM255.291 16.8984L255.127 17.8848L256.291 18.0789V16.8984H255.291ZM249.35 19.5L248.427 19.1133L248.35 19.2988V19.5H249.35ZM249.35 33V34H250.35V33H249.35ZM246.098 33H245.098V34H246.098V33ZM246.098 13.9805V12.9805H245.098V13.9805H246.098ZM249.262 13.9805L250.261 13.9565L250.238 12.9805H249.262V13.9805ZM249.314 16.1777L248.315 16.2017L248.394 19.5248L250.161 16.7093L249.314 16.1777ZM255.291 13.875H256.291V13.257L255.738 12.9806L255.291 13.875ZM255.455 15.912C254.902 15.8197 254.313 15.7754 253.691 15.7754V17.7754C254.219 17.7754 254.696 17.8131 255.127 17.8848L255.455 15.912ZM253.691 15.7754C252.483 15.7754 251.393 16.0333 250.475 16.6095C249.551 17.1892 248.875 18.0451 248.427 19.1133L250.272 19.8867C250.586 19.1385 251.014 18.632 251.538 18.3036C252.067 17.9716 252.767 17.7754 253.691 17.7754V15.7754ZM248.35 19.5V33H250.35V19.5H248.35ZM249.35 32H246.098V34H249.35V32ZM247.098 33V13.9805H245.098V33H247.098ZM246.098 14.9805H249.262V12.9805H246.098V14.9805ZM248.262 14.0045L248.315 16.2017L250.314 16.1537L250.261 13.9565L248.262 14.0045ZM250.161 16.7093C251.051 15.2927 252.247 14.6289 253.85 14.6289V12.6289C251.538 12.6289 249.711 13.6644 248.467 15.6462L250.161 16.7093ZM253.85 14.6289C254.424 14.6289 254.721 14.7081 254.844 14.7694L255.738 12.9806C255.205 12.7138 254.54 12.6289 253.85 12.6289V14.6289ZM254.291 13.875V16.8984H256.291V13.875H254.291ZM261.83 33V34H262.83V33H261.83ZM258.578 33H257.578V34H258.578V33ZM258.578 13.9805V12.9805H257.578V13.9805H258.578ZM261.83 13.9805H262.83V12.9805H261.83V13.9805ZM258.789 7.59961L258.047 6.92932L258.041 6.93602L258.035 6.94283L258.789 7.59961ZM258.789 10.2539L258.046 10.9229L258.052 10.9296L258.058 10.9362L258.789 10.2539ZM261.83 32H258.578V34H261.83V32ZM259.578 33V13.9805H257.578V33H259.578ZM258.578 14.9805H261.83V12.9805H258.578V14.9805ZM260.83 13.9805V33H262.83V13.9805H260.83ZM259.314 8.93555C259.314 8.62501 259.401 8.41986 259.543 8.25639L258.035 6.94283C257.545 7.50592 257.314 8.19139 257.314 8.93555H259.314ZM259.531 8.2699C259.618 8.17393 259.793 8.05469 260.23 8.05469V6.05469C259.403 6.05469 258.617 6.29872 258.047 6.92932L259.531 8.2699ZM260.23 8.05469C260.668 8.05469 260.843 8.17393 260.93 8.2699L262.414 6.92932C261.844 6.29872 261.058 6.05469 260.23 6.05469V8.05469ZM260.93 8.2699C261.078 8.43451 261.164 8.63504 261.164 8.93555H263.164C263.164 8.18137 262.922 7.49128 262.414 6.92932L260.93 8.2699ZM261.164 8.93555C261.164 9.23622 261.079 9.42378 260.941 9.57159L262.403 10.9362C262.921 10.3809 263.164 9.68956 263.164 8.93555H261.164ZM260.941 9.57159C260.857 9.66191 260.678 9.78125 260.23 9.78125V11.7812C261.049 11.7812 261.831 11.549 262.403 10.9362L260.941 9.57159ZM260.23 9.78125C259.783 9.78125 259.604 9.66191 259.52 9.57159L258.058 10.9362C258.63 11.549 259.412 11.7812 260.23 11.7812V9.78125ZM259.532 9.58494C259.401 9.43854 259.314 9.24644 259.314 8.93555H257.314C257.314 9.67935 257.545 10.3662 258.046 10.9229L259.532 9.58494Z" fill="#313131"/>
</g>
<defs>
<filter id="filter0_d_1_5" x="0.931641" y="7.40625" width="124.385" height="33.9453" filterUnits="userSpaceOnUse" color-interpolation-filters="sRGB">
<feFlood flood-opacity="0" result="BackgroundImageFix"/>
<feColorMatrix in="SourceAlpha" type="matrix" values="0 0 0 0 0 0 0 0 0 0 0 0 0 0 0 0 0 0 127 0" result="hardAlpha"/>
<feOffset dy="4"/>
<feGaussianBlur stdDeviation="2"/>
<feComposite in2="hardAlpha" operator="out"/>
<feColorMatrix type="matrix" values="0 0 0 0 0 0 0 0 0 0 0 0 0 0 0 0 0 0 0.25 0"/>
<feBlend mode="normal" in2="BackgroundImageFix" result="effect1_dropShadow_1_5"/>
<feBlend mode="normal" in="SourceGraphic" in2="effect1_dropShadow_1_5" result="shape"/>
</filter>
<filter id="filter1_d_1_5" x="138.861" y="5.63086" width="127.303" height="35.7207" filterUnits="userSpaceOnUse" color-interpolation-filters="sRGB">
<feFlood flood-opacity="0" result="BackgroundImageFix"/>
<feColorMatrix in="SourceAlpha" type="matrix" values="0 0 0 0 0 0 0 0 0 0 0 0 0 0 0 0 0 0 127 0" result="hardAlpha"/>
<feOffset dy="4"/>
<feGaussianBlur stdDeviation="2"/>
<feComposite in2="hardAlpha" operator="out"/>
<feColorMatrix type="matrix" values="0 0 0 0 0 0 0 0 0 0 0 0 0 0 0 0 0 0 0.25 0"/>
<feBlend mode="normal" in2="BackgroundImageFix" result="effect1_dropShadow_1_5"/>
<feBlend mode="normal" in="SourceGraphic" in2="effect1_dropShadow_1_5" result="shape"/>
</filter>
</defs>
</svg>
